<svg version="1.1" xmlns="http://www.w3.org/2000/svg" xmlns:xlink="http://www.w3.org/1999/xlink" width="1532" height="1436"><defs/><g><g transform="translate(10,10) scale(1,1)"><path fill="none" stroke="#000000" d="M 0 0 L 1512 0 L 1512 1416 L 0 1416 L 0 0" stroke-miterlimit="10"/></g><g transform="translate(10,10) scale(1,1)"><path fill="#ffffff" stroke="none" d="M 0 0 L 0 22 L 144.63525390625 22 L 155.63525390625 11 L 155.63525390625 0 L 0 0"/></g><g transform="translate(10,10) scale(1,1)"><path fill="none" stroke="#000000" d="M 0 0 L 0 22 L 144.63525390625 22 L 155.63525390625 11 L 155.63525390625 0 L 0 0 L 0 0" stroke-miterlimit="10"/></g><g transform="translate(10,10) scale(1,1)"><g><path fill="none" stroke="none"/><text fill="#000000" stroke="none" font-family="Arial" font-size="13px" font-style="normal" font-weight="normal" text-decoration="none" x="24.72998046875" y="17.5">SequenceDiagram1</text></g></g><g transform="translate(10,10) scale(1,1)"><g><path fill="none" stroke="none"/><text fill="#000000" stroke="none" font-family="Arial" font-size="13px" font-style="normal" font-weight="bold" text-decoration="none" x="5" y="17.5">sd</text></g></g><g transform="translate(10,10) scale(1,1)"><path fill="#ffffff" stroke="none" d="M 65.3599715909091 47.3 C 65.3599715909091 43.82060576 68.23837331309092 41 71.7890625 41 C 75.33975168690908 41 78.2181534090909 43.82060576 78.2181534090909 47.3 C 78.2181534090909 50.779394239999995 75.33975168690908 53.6 71.7890625 53.6 C 68.23837331309092 53.6 65.3599715909091 50.779394239999995 65.3599715909091 47.3 Z"/></g><g transform="translate(10,10) scale(1,1)"><path fill="none" stroke="#000000" d="M 65.3599715909091 47.3 C 65.3599715909091 43.82060576 68.23837331309092 41 71.7890625 41 C 75.33975168690908 41 78.2181534090909 43.82060576 78.2181534090909 47.3 C 78.2181534090909 50.779394239999995 75.33975168690908 53.6 71.7890625 53.6 C 68.23837331309092 53.6 65.3599715909091 50.779394239999995 65.3599715909091 47.3 Z" stroke-miterlimit="10"/></g><g transform="translate(10,10) scale(1,1)"><path fill="none" stroke="#000000" d="M 71.7890625 53.6 L 71.7890625 66.4" stroke-miterlimit="10"/></g><g transform="translate(10,10) scale(1,1)"><path fill="none" stroke="#000000" d="M 64.98178977272727 58.4 L 78.59633522727273 58.4" stroke-miterlimit="10"/></g><g transform="translate(10,10) scale(1,1)"><path fill="none" stroke="#000000" d="M 71.7890625 66.4 L 62.33451704545455 79" stroke-miterlimit="10"/></g><g transform="translate(10,10) scale(1,1)"><path fill="none" stroke="#000000" d="M 71.7890625 66.4 L 81.24360795454545 79" stroke-miterlimit="10"/></g><g transform="translate(10,10) scale(1,1)"><g><path fill="none" stroke="none"/><text fill="#000000" stroke="none" font-family="Arial" font-size="13px" font-style="normal" font-weight="bold" text-decoration="none" x="23.7373046875" y="99.5">Manager: Actor1</text></g></g><g transform="translate(10,10) scale(1,1)"><path fill="none" stroke="#000000" d="M 72.5 105 L 72.5 1416" stroke-miterlimit="10" stroke-dasharray="3"/></g><g transform="translate(10,10) scale(1,1)"><rect fill="#C0C0C0" stroke="none" x="223" y="47" width="71.736328125" height="39" opacity="0.2"/></g><g transform="translate(10,10) scale(1,1)"><rect fill="#ffffff" stroke="none" x="216" y="40" width="71.736328125" height="39"/></g><g transform="translate(10,10) scale(1,1)"><path fill="none" stroke="#000000" d="M 216 40 L 287.736328125 40 L 287.736328125 79 L 216 79 L 216 40 Z Z" stroke-miterlimit="10"/></g><g transform="translate(10,10) scale(1,1)"><g><path fill="none" stroke="none"/><text fill="#000000" stroke="none" font-family="Arial" font-size="13px" font-style="normal" font-weight="bold" text-decoration="none" x="235.9736328125" y="59.5">Carte</text></g></g><g transform="translate(10,10) scale(1,1)"><path fill="none" stroke="#000000" d="M 252.5 80 L 252.5 1416" stroke-miterlimit="10" stroke-dasharray="3"/></g><g transform="translate(10,10) scale(1,1)"><rect fill="#C0C0C0" stroke="none" x="487" y="47" width="104" height="39" opacity="0.2"/></g><g transform="translate(10,10) scale(1,1)"><rect fill="#ffffff" stroke="none" x="480" y="40" width="104" height="39"/></g><g transform="translate(10,10) scale(1,1)"><path fill="none" stroke="#000000" d="M 480 40 L 584 40 L 584 79 L 480 79 L 480 40 Z Z" stroke-miterlimit="10"/></g><g transform="translate(10,10) scale(1,1)"><g><path fill="none" stroke="none"/><text fill="#000000" stroke="none" font-family="Arial" font-size="13px" font-style="normal" font-weight="bold" text-decoration="none" x="494.421875" y="59.5">Constellation</text></g></g><g transform="translate(10,10) scale(1,1)"><path fill="none" stroke="#000000" d="M 533.5 80 L 533.5 1416" stroke-miterlimit="10" stroke-dasharray="3"/></g><g transform="translate(10,10) scale(1,1)"><rect fill="#C0C0C0" stroke="none" x="1143" y="47" width="71.736328125" height="39" opacity="0.2"/></g><g transform="translate(10,10) scale(1,1)"><rect fill="#ffffff" stroke="none" x="1136" y="40" width="71.736328125" height="39"/></g><g transform="translate(10,10) scale(1,1)"><path fill="none" stroke="#000000" d="M 1136 40 L 1207.736328125 40 L 1207.736328125 79 L 1136 79 L 1136 40 Z Z" stroke-miterlimit="10"/></g><g transform="translate(10,10) scale(1,1)"><g><path fill="none" stroke="none"/><text fill="#000000" stroke="none" font-family="Arial" font-size="13px" font-style="normal" font-weight="bold" text-decoration="none" x="1157.052734375" y="59.5">Point</text></g></g><g transform="translate(10,10) scale(1,1)"><path fill="none" stroke="#000000" d="M 1172.5 80 L 1172.5 1304" stroke-miterlimit="10" stroke-dasharray="3"/></g><g transform="translate(10,10) scale(1,1)"><rect fill="#C0C0C0" stroke="none" x="775" y="47" width="73.90087890625" height="39" opacity="0.2"/></g><g transform="translate(10,10) scale(1,1)"><rect fill="#ffffff" stroke="none" x="768" y="40" width="73.90087890625" height="39"/></g><g transform="translate(10,10) scale(1,1)"><path fill="none" stroke="#000000" d="M 768 40 L 841.90087890625 40 L 841.90087890625 79 L 768 79 L 768 40 Z Z" stroke-miterlimit="10"/></g><g transform="translate(10,10) scale(1,1)"><g><path fill="none" stroke="none"/><text fill="#000000" stroke="none" font-family="Arial" font-size="13px" font-style="normal" font-weight="bold" text-decoration="none" x="778.9345703125" y="59.5">Segment</text></g></g><g transform="translate(10,10) scale(1,1)"><path fill="none" stroke="#000000" d="M 805.5 80 L 805.5 1416" stroke-miterlimit="10" stroke-dasharray="3"/></g><g transform="translate(10,10) scale(1,1)"><path fill="#ffffff" stroke="none" d="M 984 296 L 1101 296 L 1111 306 L 1111 345 L 984 345 L 984 296"/></g><g transform="translate(10,10) scale(1,1)"><path fill="none" stroke="#000000" d="M 984 296 L 1101 296 L 1111 306 L 1111 345 L 984 345 L 984 296 L 984 296" stroke-miterlimit="10"/></g><g transform="translate(10,10) scale(1,1)"><path fill="none" stroke="#000000" d="M 1101 296 L 1101 306 L 1111 306 L 1101 296" stroke-miterlimit="10"/></g><g transform="translate(10,10) scale(1,1)"><g><path fill="none" stroke="none"/><text fill="#000000" stroke="none" font-family="Arial" font-size="13px" font-style="normal" font-weight="normal" text-decoration="none" x="989" y="314">Pile est un tableau</text><text fill="#000000" stroke="none" font-family="Arial" font-size="13px" font-style="normal" font-weight="normal" text-decoration="none" x="989" y="327">de Point qui sert de</text><text fill="#000000" stroke="none" font-family="Arial" font-size="13px" font-style="normal" font-weight="normal" text-decoration="none" x="989" y="340">pile.</text></g></g><g transform="translate(10,10) scale(1,1)"><path fill="#ffffff" stroke="none" d="M 336 896 L 493 896 L 503 906 L 503 997 L 336 997 L 336 896"/></g><g transform="translate(10,10) scale(1,1)"><path fill="none" stroke="#000000" d="M 336 896 L 493 896 L 503 906 L 503 997 L 336 997 L 336 896 L 336 896" stroke-miterlimit="10"/></g><g transform="translate(10,10) scale(1,1)"><path fill="none" stroke="#000000" d="M 493 896 L 493 906 L 503 906 L 493 896" stroke-miterlimit="10"/></g><g transform="translate(10,10) scale(1,1)"><g><path fill="none" stroke="none"/><text fill="#000000" stroke="none" font-family="Arial" font-size="13px" font-style="normal" font-weight="normal" text-decoration="none" x="341" y="914">Si la constellation possède</text><text fill="#000000" stroke="none" font-family="Arial" font-size="13px" font-style="normal" font-weight="normal" text-decoration="none" x="341" y="927">des points non visités la</text><text fill="#000000" stroke="none" font-family="Arial" font-size="13px" font-style="normal" font-weight="normal" text-decoration="none" x="341" y="940">constellation les retourne </text><text fill="#000000" stroke="none" font-family="Arial" font-size="13px" font-style="normal" font-weight="normal" text-decoration="none" x="341" y="953">sous forme d'une nouvelle</text><text fill="#000000" stroke="none" font-family="Arial" font-size="13px" font-style="normal" font-weight="normal" text-decoration="none" x="341" y="966">constellation. Sinon elle</text><text fill="#000000" stroke="none" font-family="Arial" font-size="13px" font-style="normal" font-weight="normal" text-decoration="none" x="341" y="979">retourne rien.</text></g></g><g transform="translate(10,10) scale(1,1)"><path fill="#ffffff" stroke="none" d="M 1224 416 L 1317 416 L 1327 426 L 1327 495 L 1224 495 L 1224 416"/></g><g transform="translate(10,10) scale(1,1)"><path fill="none" stroke="#000000" d="M 1224 416 L 1317 416 L 1327 426 L 1327 495 L 1224 495 L 1224 416 L 1224 416" stroke-miterlimit="10"/></g><g transform="translate(10,10) scale(1,1)"><path fill="none" stroke="#000000" d="M 1317 416 L 1317 426 L 1327 426 L 1317 416" stroke-miterlimit="10"/></g><g transform="translate(10,10) scale(1,1)"><g><path fill="none" stroke="none"/><text fill="#000000" stroke="none" font-family="Arial" font-size="13px" font-style="normal" font-weight="normal" text-decoration="none" x="1229" y="434">i est</text><text fill="#000000" stroke="none" font-family="Arial" font-size="13px" font-style="normal" font-weight="normal" text-decoration="none" x="1229" y="447">incrémentée de</text><text fill="#000000" stroke="none" font-family="Arial" font-size="13px" font-style="normal" font-weight="normal" text-decoration="none" x="1229" y="460">1 à chaque tour</text><text fill="#000000" stroke="none" font-family="Arial" font-size="13px" font-style="normal" font-weight="normal" text-decoration="none" x="1229" y="473">de boucle</text></g></g><g transform="translate(10,10) scale(1,1)"><path fill="#ffffff" stroke="none" d="M 960 672 L 1093 672 L 1103 682 L 1103 734 L 960 734 L 960 672"/></g><g transform="translate(10,10) scale(1,1)"><path fill="none" stroke="#000000" d="M 960 672 L 1093 672 L 1103 682 L 1103 734 L 960 734 L 960 672 L 960 672" stroke-miterlimit="10"/></g><g transform="translate(10,10) scale(1,1)"><path fill="none" stroke="#000000" d="M 1093 672 L 1093 682 L 1103 682 L 1093 672" stroke-miterlimit="10"/></g><g transform="translate(10,10) scale(1,1)"><g><path fill="none" stroke="none"/><text fill="#000000" stroke="none" font-family="Arial" font-size="13px" font-style="normal" font-weight="normal" text-decoration="none" x="965" y="690">Visite est une</text><text fill="#000000" stroke="none" font-family="Arial" font-size="13px" font-style="normal" font-weight="normal" text-decoration="none" x="965" y="703">collection qui contient</text><text fill="#000000" stroke="none" font-family="Arial" font-size="13px" font-style="normal" font-weight="normal" text-decoration="none" x="965" y="716">tous les points qui ont</text><text fill="#000000" stroke="none" font-family="Arial" font-size="13px" font-style="normal" font-weight="normal" text-decoration="none" x="965" y="729">été visité.</text></g></g><g transform="translate(10,10) scale(1,1)"><path fill="#ffffff" stroke="none" d="M 1224 768 L 1364 768 L 1374 778 L 1374 838 L 1224 838 L 1224 768"/></g><g transform="translate(10,10) scale(1,1)"><path fill="none" stroke="#000000" d="M 1224 768 L 1364 768 L 1374 778 L 1374 838 L 1224 838 L 1224 768 L 1224 768" stroke-miterlimit="10"/></g><g transform="translate(10,10) scale(1,1)"><path fill="none" stroke="#000000" d="M 1364 768 L 1364 778 L 1374 778 L 1364 768" stroke-miterlimit="10"/></g><g transform="translate(10,10) scale(1,1)"><g><path fill="none" stroke="none"/><text fill="#000000" stroke="none" font-family="Arial" font-size="13px" font-style="normal" font-weight="normal" text-decoration="none" x="1229" y="786">A chaque ajout de point</text><text fill="#000000" stroke="none" font-family="Arial" font-size="13px" font-style="normal" font-weight="normal" text-decoration="none" x="1229" y="799">dans la pile</text><text fill="#000000" stroke="none" font-family="Arial" font-size="13px" font-style="normal" font-weight="normal" text-decoration="none" x="1229" y="812">TailleLogique est</text><text fill="#000000" stroke="none" font-family="Arial" font-size="13px" font-style="normal" font-weight="normal" text-decoration="none" x="1229" y="825">incrémentée de 1.</text></g></g><g transform="translate(10,10) scale(1,1)"><path fill="#ffffff" stroke="none" d="M 360 1280 L 429 1280 L 439 1290 L 439 1355 L 360 1355 L 360 1280"/></g><g transform="translate(10,10) scale(1,1)"><path fill="none" stroke="#000000" d="M 360 1280 L 429 1280 L 439 1290 L 439 1355 L 360 1355 L 360 1280 L 360 1280" stroke-miterlimit="10"/></g><g transform="translate(10,10) scale(1,1)"><path fill="none" stroke="#000000" d="M 429 1280 L 429 1290 L 439 1290 L 429 1280" stroke-miterlimit="10"/></g><g transform="translate(10,10) scale(1,1)"><g><path fill="none" stroke="none"/><text fill="#000000" stroke="none" font-family="Arial" font-size="13px" font-style="normal" font-weight="normal" text-decoration="none" x="365" y="1298">L'Astre est</text><text fill="#000000" stroke="none" font-family="Arial" font-size="13px" font-style="normal" font-weight="normal" text-decoration="none" x="365" y="1311">supprimé et</text><text fill="#000000" stroke="none" font-family="Arial" font-size="13px" font-style="normal" font-weight="normal" text-decoration="none" x="365" y="1324">retourné.</text></g></g><g transform="translate(10,10) scale(1,1)"><path fill="#ffffff" stroke="none" d="M 72 1144 L 194.8798828125 1144 L 204.8798828125 1154 L 204.8798828125 1232 L 72 1232 L 72 1144"/></g><g transform="translate(10,10) scale(1,1)"><path fill="none" stroke="#000000" d="M 72 1144 L 194.8798828125 1144 L 204.8798828125 1154 L 204.8798828125 1232 L 72 1232 L 72 1144 L 72 1144" stroke-miterlimit="10"/></g><g transform="translate(10,10) scale(1,1)"><path fill="none" stroke="#000000" d="M 194.8798828125 1144 L 194.8798828125 1154 L 204.8798828125 1154 L 194.8798828125 1144" stroke-miterlimit="10"/></g><g transform="translate(10,10) scale(1,1)"><g><path fill="none" stroke="none"/><text fill="#000000" stroke="none" font-family="Arial" font-size="13px" font-style="normal" font-weight="normal" text-decoration="none" x="77" y="1162">Tant que</text><text fill="#000000" stroke="none" font-family="Arial" font-size="13px" font-style="normal" font-weight="normal" text-decoration="none" x="77" y="1175">DiviserConstellation</text><text fill="#000000" stroke="none" font-family="Arial" font-size="13px" font-style="normal" font-weight="normal" text-decoration="none" x="77" y="1188">ne retourne pas nul,</text><text fill="#000000" stroke="none" font-family="Arial" font-size="13px" font-style="normal" font-weight="normal" text-decoration="none" x="77" y="1201">DiviserConstellation</text><text fill="#000000" stroke="none" font-family="Arial" font-size="13px" font-style="normal" font-weight="normal" text-decoration="none" x="77" y="1214">est rappelé.</text></g></g><g transform="translate(10,10) scale(1,1)"><path fill="none" stroke="#000000" d="M 72 163 L 245 163" stroke-miterlimit="10"/></g><g transform="translate(10,10) scale(1,1)"><path fill="#000000" stroke="none" d="M 234.83732514237585 167.209517756016 L 245 163 L 234.83732514237585 158.790482243984"/></g><g transform="translate(10,10) scale(1,1)"><path fill="none" stroke="#000000" d="M 234.83732514237585 167.209517756016 L 245 163 L 234.83732514237585 158.790482243984 L 234.83732514237585 167.209517756016" stroke-miterlimit="10"/></g><g transform="translate(10,10) scale(1,1)"><g><path fill="none" stroke="none"/><text fill="#000000" stroke="none" font-family="Arial" font-size="13px" font-style="normal" font-weight="normal" text-decoration="none" x="95.5" y="159.5">1 : SupprimerUnAstre</text></g></g><g transform="translate(10,10) scale(1,1)"><rect fill="#ffffff" stroke="none" x="245" y="163" width="13" height="1085"/></g><g transform="translate(10,10) scale(1,1)"><path fill="none" stroke="#000000" d="M 245 163 L 258 163 L 258 1248 L 245 1248 L 245 163 Z Z" stroke-miterlimit="10"/></g><g transform="translate(10,10) scale(1,1)"><path fill="none" stroke="#000000" d="M 258 184 L 526 184" stroke-miterlimit="10"/></g><g transform="translate(10,10) scale(1,1)"><path fill="#000000" stroke="none" d="M 515.8373251423759 188.209517756016 L 526 184 L 515.8373251423758 179.790482243984"/></g><g transform="translate(10,10) scale(1,1)"><path fill="none" stroke="#000000" d="M 515.8373251423759 188.209517756016 L 526 184 L 515.8373251423758 179.790482243984 L 515.8373251423759 188.209517756016" stroke-miterlimit="10"/></g><g transform="translate(10,10) scale(1,1)"><g><path fill="none" stroke="none"/><text fill="#000000" stroke="none" font-family="Arial" font-size="13px" font-style="normal" font-weight="normal" text-decoration="none" x="335.5" y="172.5">2 : ParcoursConstellations</text></g></g><g transform="translate(10,10) scale(1,1)"><rect fill="#ffffff" stroke="none" x="526" y="184" width="13" height="40"/></g><g transform="translate(10,10) scale(1,1)"><path fill="none" stroke="#000000" d="M 526 184 L 539 184 L 539 224 L 526 224 L 526 184 Z Z" stroke-miterlimit="10"/></g><g transform="translate(10,10) scale(1,1)"><path fill="none" stroke="#000000" d="M 533 224 L 258 224" stroke-miterlimit="10" stroke-dasharray="3"/></g><g transform="translate(10,10) scale(1,1)"><path fill="none" stroke="#000000" d="M 268.16267485762415 219.790482243984 L 258 224 L 268.16267485762415 228.209517756016" stroke-miterlimit="10"/></g><g transform="translate(10,10) scale(1,1)"><g><path fill="none" stroke="none"/><text fill="#000000" stroke="none" font-family="Arial" font-size="13px" font-style="normal" font-weight="normal" text-decoration="none" x="347.5" y="240.5">3 : Constellation</text></g></g><g transform="translate(10,10) scale(1,1)"><path fill="none" stroke="#000000" d="M 258 296 L 526 296" stroke-miterlimit="10"/></g><g transform="translate(10,10) scale(1,1)"><path fill="#000000" stroke="none" d="M 515.8373251423759 300.209517756016 L 526 296 L 515.8373251423758 291.790482243984"/></g><g transform="translate(10,10) scale(1,1)"><path fill="none" stroke="#000000" d="M 515.8373251423759 300.209517756016 L 526 296 L 515.8373251423758 291.790482243984 L 515.8373251423759 300.209517756016" stroke-miterlimit="10"/></g><g transform="translate(10,10) scale(1,1)"><g><path fill="none" stroke="none"/><text fill="#000000" stroke="none" font-family="Arial" font-size="13px" font-style="normal" font-weight="normal" text-decoration="none" x="325.5" y="291.5">4 : SupprimerLesLiens</text></g></g><g transform="translate(10,10) scale(1,1)"><rect fill="#ffffff" stroke="none" x="526" y="296" width="13" height="40"/></g><g transform="translate(10,10) scale(1,1)"><path fill="none" stroke="#000000" d="M 526 296 L 539 296 L 539 336 L 526 336 L 526 296 Z Z" stroke-miterlimit="10"/></g><g transform="translate(10,10) scale(1,1)"><path fill="none" stroke="#000000" d="M 526 328 L 258 328" stroke-miterlimit="10" stroke-dasharray="3"/></g><g transform="translate(10,10) scale(1,1)"><path fill="none" stroke="#000000" d="M 268.16267485762415 323.790482243984 L 258 328 L 268.16267485762415 332.209517756016" stroke-miterlimit="10"/></g><g transform="translate(10,10) scale(1,1)"><g><path fill="none" stroke="none"/><text fill="#000000" stroke="none" font-family="Arial" font-size="13px" font-style="normal" font-weight="normal" text-decoration="none" x="381.5" y="344.5">5 : </text></g></g><g transform="translate(10,10) scale(1,1)"><path fill="none" stroke="#000000" d="M 258 368 L 526 368" stroke-miterlimit="10"/></g><g transform="translate(10,10) scale(1,1)"><path fill="#000000" stroke="none" d="M 515.8373251423759 372.209517756016 L 526 368 L 515.8373251423758 363.790482243984"/></g><g transform="translate(10,10) scale(1,1)"><path fill="none" stroke="#000000" d="M 515.8373251423759 372.209517756016 L 526 368 L 515.8373251423758 363.790482243984 L 515.8373251423759 372.209517756016" stroke-miterlimit="10"/></g><g transform="translate(10,10) scale(1,1)"><g><path fill="none" stroke="none"/><text fill="#000000" stroke="none" font-family="Arial" font-size="13px" font-style="normal" font-weight="normal" text-decoration="none" x="325.5" y="364.5">6 : DiviserConstellation</text></g></g><g transform="translate(10,10) scale(1,1)"><rect fill="#ffffff" stroke="none" x="526" y="368" width="13" height="744"/></g><g transform="translate(10,10) scale(1,1)"><path fill="none" stroke="#000000" d="M 526 368 L 539 368 L 539 1112 L 526 1112 L 526 368 Z Z" stroke-miterlimit="10"/></g><g transform="translate(10,10) scale(1,1)"><path fill="none" stroke="#000000" d="M 539 384 L 1165 384" stroke-miterlimit="10"/></g><g transform="translate(10,10) scale(1,1)"><path fill="#000000" stroke="none" d="M 1154.837325142376 388.209517756016 L 1165 384 L 1154.837325142376 379.790482243984"/></g><g transform="translate(10,10) scale(1,1)"><path fill="none" stroke="#000000" d="M 1154.837325142376 388.209517756016 L 1165 384 L 1154.837325142376 379.790482243984 L 1154.837325142376 388.209517756016" stroke-miterlimit="10"/></g><g transform="translate(10,10) scale(1,1)"><g><path fill="none" stroke="none"/><text fill="#000000" stroke="none" font-family="Arial" font-size="13px" font-style="normal" font-weight="normal" text-decoration="none" x="930.0390625" y="380.5">7 : Pile[]</text></g></g><g transform="translate(10,10) scale(1,1)"><rect fill="#ffffff" stroke="none" x="1165" y="384" width="13" height="28"/></g><g transform="translate(10,10) scale(1,1)"><path fill="none" stroke="#000000" d="M 1165 384 L 1178 384 L 1178 412 L 1165 412 L 1165 384 Z Z" stroke-miterlimit="10"/></g><g transform="translate(10,10) scale(1,1)"><path fill="none" stroke="#000000" d="M 1165 408 L 539 408" stroke-miterlimit="10" stroke-dasharray="3"/></g><g transform="translate(10,10) scale(1,1)"><path fill="none" stroke="#000000" d="M 549.1626748576241 403.790482243984 L 539 408 L 549.1626748576241 412.209517756016" stroke-miterlimit="10"/></g><g transform="translate(10,10) scale(1,1)"><g><path fill="none" stroke="none"/><text fill="#000000" stroke="none" font-family="Arial" font-size="13px" font-style="normal" font-weight="normal" text-decoration="none" x="841.5" y="424.5">8 : </text></g></g><g transform="translate(10,10) scale(1,1)"><path fill="none" stroke="#000000" d="M 539 472 L 798 472" stroke-miterlimit="10"/></g><g transform="translate(10,10) scale(1,1)"><path fill="#000000" stroke="none" d="M 787.8373251423759 476.209517756016 L 798 472 L 787.8373251423758 467.790482243984"/></g><g transform="translate(10,10) scale(1,1)"><path fill="none" stroke="#000000" d="M 787.8373251423759 476.209517756016 L 798 472 L 787.8373251423758 467.790482243984 L 787.8373251423759 476.209517756016" stroke-miterlimit="10"/></g><g transform="translate(10,10) scale(1,1)"><g><path fill="none" stroke="none"/><text fill="#000000" stroke="none" font-family="Arial" font-size="13px" font-style="normal" font-weight="normal" text-decoration="none" x="617.305908203125" y="468.5">9 : Collection&lt;Segment&gt;</text></g></g><g transform="translate(10,10) scale(1,1)"><rect fill="#ffffff" stroke="none" x="798" y="472" width="13" height="88"/></g><g transform="translate(10,10) scale(1,1)"><path fill="none" stroke="#000000" d="M 798 472 L 811 472 L 811 560 L 798 560 L 798 472 Z Z" stroke-miterlimit="10"/></g><g transform="translate(10,10) scale(1,1)"><path fill="none" stroke="#000000" d="M 811 480 L 1165 480" stroke-miterlimit="10"/></g><g transform="translate(10,10) scale(1,1)"><path fill="#000000" stroke="none" d="M 1154.837325142376 484.209517756016 L 1165 480 L 1154.837325142376 475.790482243984"/></g><g transform="translate(10,10) scale(1,1)"><path fill="none" stroke="#000000" d="M 1154.837325142376 484.209517756016 L 1165 480 L 1154.837325142376 475.790482243984 L 1154.837325142376 484.209517756016" stroke-miterlimit="10"/></g><g transform="translate(10,10) scale(1,1)"><g><path fill="none" stroke="none"/><text fill="#000000" stroke="none" font-family="Arial" font-size="13px" font-style="normal" font-weight="normal" text-decoration="none" x="948.858642578125" y="476.5">10 : PtEquals</text></g></g><g transform="translate(10,10) scale(1,1)"><rect fill="#ffffff" stroke="none" x="1165" y="480" width="13" height="40"/></g><g transform="translate(10,10) scale(1,1)"><path fill="none" stroke="#000000" d="M 1165 480 L 1178 480 L 1178 520 L 1165 520 L 1165 480 Z Z" stroke-miterlimit="10"/></g><g transform="translate(10,10) scale(1,1)"><path fill="none" stroke="#000000" d="M 1165 514 L 811 514" stroke-miterlimit="10" stroke-dasharray="3"/></g><g transform="translate(10,10) scale(1,1)"><path fill="none" stroke="#000000" d="M 821.1626748576241 509.790482243984 L 811 514 L 821.1626748576241 518.209517756016" stroke-miterlimit="10"/></g><g transform="translate(10,10) scale(1,1)"><g><path fill="none" stroke="none"/><text fill="#000000" stroke="none" font-family="Arial" font-size="13px" font-style="normal" font-weight="normal" text-decoration="none" x="962.982421875" y="530.5">11 : bool</text></g></g><g transform="translate(10,10) scale(1,1)"><path fill="none" stroke="#000000" d="M 805 560 L 539 560" stroke-miterlimit="10" stroke-dasharray="3"/></g><g transform="translate(10,10) scale(1,1)"><path fill="none" stroke="#000000" d="M 549.1626748576241 555.790482243984 L 539 560 L 549.1626748576241 564.209517756016" stroke-miterlimit="10"/></g><g transform="translate(10,10) scale(1,1)"><g><path fill="none" stroke="none"/><text fill="#000000" stroke="none" font-family="Arial" font-size="13px" font-style="normal" font-weight="normal" text-decoration="none" x="609.305908203125" y="579.5">12 : Collection&lt;Segment&gt;</text></g></g><g transform="translate(10,10) scale(1,1)"><path fill="none" stroke="#000000" d="M 539 704 L 798 704" stroke-miterlimit="10"/></g><g transform="translate(10,10) scale(1,1)"><path fill="none" stroke="#000000" d="M 787.8373251423759 708.209517756016 L 798 704 L 787.8373251423758 699.790482243984" stroke-miterlimit="10"/></g><g transform="translate(10,10) scale(1,1)"><g><path fill="none" stroke="none"/><text fill="#000000" stroke="none" font-family="Arial" font-size="13px" font-style="normal" font-weight="normal" text-decoration="none" x="679.5" y="692.5">13 : Collection&lt;Segment&gt;</text></g></g><g transform="translate(10,10) scale(1,1)"><rect fill="#ffffff" stroke="none" x="798" y="704" width="13" height="64"/></g><g transform="translate(10,10) scale(1,1)"><path fill="none" stroke="#000000" d="M 798 704 L 811 704 L 811 768 L 798 768 L 798 704 Z Z" stroke-miterlimit="10"/></g><g transform="translate(10,10) scale(1,1)"><path fill="none" stroke="#000000" d="M 805 768 L 539 768" stroke-miterlimit="10" stroke-dasharray="3"/></g><g transform="translate(10,10) scale(1,1)"><path fill="none" stroke="#000000" d="M 549.1626748576241 763.790482243984 L 539 768 L 549.1626748576241 772.209517756016" stroke-miterlimit="10"/></g><g transform="translate(10,10) scale(1,1)"><g><path fill="none" stroke="none"/><text fill="#000000" stroke="none" font-family="Arial" font-size="13px" font-style="normal" font-weight="normal" text-decoration="none" x="658.5" y="784.5">14 : </text></g></g><g transform="translate(10,10) scale(1,1)"><path fill="none" stroke="#000000" d="M 539 792 L 1165 792" stroke-miterlimit="10"/></g><g transform="translate(10,10) scale(1,1)"><path fill="none" stroke="#000000" d="M 1154.837325142376 796.209517756016 L 1165 792 L 1154.837325142376 787.790482243984" stroke-miterlimit="10"/></g><g transform="translate(10,10) scale(1,1)"><g><path fill="none" stroke="none"/><text fill="#000000" stroke="none" font-family="Arial" font-size="13px" font-style="normal" font-weight="normal" text-decoration="none" x="878.5" y="780.5">15 : Pile[tailleLogique] = segment.Point2</text></g></g><g transform="translate(10,10) scale(1,1)"><rect fill="#ffffff" stroke="none" x="1165" y="792" width="13" height="40"/></g><g transform="translate(10,10) scale(1,1)"><path fill="none" stroke="#000000" d="M 1165 792 L 1178 792 L 1178 832 L 1165 832 L 1165 792 Z Z" stroke-miterlimit="10"/></g><g transform="translate(10,10) scale(1,1)"><path fill="none" stroke="#000000" d="M 1172 832 L 539 832" stroke-miterlimit="10" stroke-dasharray="3"/></g><g transform="translate(10,10) scale(1,1)"><path fill="none" stroke="#000000" d="M 549.1626748576241 827.790482243984 L 539 832 L 549.1626748576241 836.209517756016" stroke-miterlimit="10"/></g><g transform="translate(10,10) scale(1,1)"><g><path fill="none" stroke="none"/><text fill="#000000" stroke="none" font-family="Arial" font-size="13px" font-style="normal" font-weight="normal" text-decoration="none" x="841.5" y="848.5">16 : </text></g></g><g transform="translate(10,10) scale(1,1)"><path fill="none" stroke="#000000" d="M 539 896 L 1165 896" stroke-miterlimit="10"/></g><g transform="translate(10,10) scale(1,1)"><path fill="none" stroke="#000000" d="M 1154.837325142376 900.209517756016 L 1165 896 L 1154.837325142376 891.790482243984" stroke-miterlimit="10"/></g><g transform="translate(10,10) scale(1,1)"><g><path fill="none" stroke="none"/><text fill="#000000" stroke="none" font-family="Arial" font-size="13px" font-style="normal" font-weight="normal" text-decoration="none" x="787.5" y="891.5">17 : Visite.Add(Pile[i])</text></g></g><g transform="translate(10,10) scale(1,1)"><rect fill="#ffffff" stroke="none" x="1165" y="896" width="13" height="28"/></g><g transform="translate(10,10) scale(1,1)"><path fill="none" stroke="#000000" d="M 1165 896 L 1178 896 L 1178 924 L 1165 924 L 1165 896 Z Z" stroke-miterlimit="10"/></g><g transform="translate(10,10) scale(1,1)"><path fill="none" stroke="#000000" d="M 1165 920 L 539 920" stroke-miterlimit="10" stroke-dasharray="3"/></g><g transform="translate(10,10) scale(1,1)"><path fill="none" stroke="#000000" d="M 549.1626748576241 915.790482243984 L 539 920 L 549.1626748576241 924.209517756016" stroke-miterlimit="10"/></g><g transform="translate(10,10) scale(1,1)"><g><path fill="none" stroke="none"/><text fill="#000000" stroke="none" font-family="Arial" font-size="13px" font-style="normal" font-weight="normal" text-decoration="none" x="838.5" y="936.5">18 : </text></g></g><g transform="translate(10,10) scale(1,1)"><path fill="none" stroke="#000000" d="M 526 1048 L 258 1048" stroke-miterlimit="10" stroke-dasharray="3"/></g><g transform="translate(10,10) scale(1,1)"><path fill="none" stroke="#000000" d="M 268.16267485762415 1043.7904822439841 L 258 1048 L 268.16267485762415 1052.2095177560159" stroke-miterlimit="10"/></g><g transform="translate(10,10) scale(1,1)"><g><path fill="none" stroke="none"/><text fill="#000000" stroke="none" font-family="Arial" font-size="13px" font-style="normal" font-weight="normal" text-decoration="none" x="340.5" y="1064.5">19 : Constellation</text></g></g><g transform="translate(10,10) scale(1,1)"><path fill="none" stroke="#000000" d="M 526 1096 L 258 1096" stroke-miterlimit="10" stroke-dasharray="3"/></g><g transform="translate(10,10) scale(1,1)"><path fill="none" stroke="#000000" d="M 268.16267485762415 1091.7904822439841 L 258 1096 L 268.16267485762415 1100.2095177560159" stroke-miterlimit="10"/></g><g transform="translate(10,10) scale(1,1)"><g><path fill="none" stroke="none"/><text fill="#000000" stroke="none" font-family="Arial" font-size="13px" font-style="normal" font-weight="normal" text-decoration="none" x="368.5" y="1112.5">20 : null</text></g></g><g transform="translate(10,10) scale(1,1)"><path fill="none" stroke="#000000" d="M 258 1168 L 526 1168" stroke-miterlimit="10"/></g><g transform="translate(10,10) scale(1,1)"><path fill="#000000" stroke="none" d="M 515.8373251423759 1172.2095177560159 L 526 1168 L 515.8373251423758 1163.7904822439841"/></g><g transform="translate(10,10) scale(1,1)"><path fill="none" stroke="#000000" d="M 515.8373251423759 1172.2095177560159 L 526 1168 L 515.8373251423758 1163.7904822439841 L 515.8373251423759 1172.2095177560159" stroke-miterlimit="10"/></g><g transform="translate(10,10) scale(1,1)"><g><path fill="none" stroke="none"/><text fill="#000000" stroke="none" font-family="Arial" font-size="13px" font-style="normal" font-weight="normal" text-decoration="none" x="323.5" y="1163.5">21 : DiviserConstellation</text></g></g><g transform="translate(10,10) scale(1,1)"><rect fill="#ffffff" stroke="none" x="526" y="1168" width="13" height="72"/></g><g transform="translate(10,10) scale(1,1)"><path fill="none" stroke="#000000" d="M 526 1168 L 539 1168 L 539 1240 L 526 1240 L 526 1168 Z Z" stroke-miterlimit="10"/></g><g transform="translate(10,10) scale(1,1)"><path fill="none" stroke="#000000" d="M 526 1192 L 258 1192" stroke-miterlimit="10" stroke-dasharray="3"/></g><g transform="translate(10,10) scale(1,1)"><path fill="none" stroke="#000000" d="M 268.16267485762415 1187.7904822439841 L 258 1192 L 268.16267485762415 1196.2095177560159" stroke-miterlimit="10"/></g><g transform="translate(10,10) scale(1,1)"><g><path fill="none" stroke="none"/><text fill="#000000" stroke="none" font-family="Arial" font-size="13px" font-style="normal" font-weight="normal" text-decoration="none" x="344.94091796875" y="1207.5">22 : Constellation</text></g></g><g transform="translate(10,10) scale(1,1)"><path fill="none" stroke="#000000" d="M 526 1224 L 258 1224" stroke-miterlimit="10" stroke-dasharray="3"/></g><g transform="translate(10,10) scale(1,1)"><path fill="none" stroke="#000000" d="M 268.16267485762415 1219.7904822439841 L 258 1224 L 268.16267485762415 1228.2095177560159" stroke-miterlimit="10"/></g><g transform="translate(10,10) scale(1,1)"><g><path fill="none" stroke="none"/><text fill="#000000" stroke="none" font-family="Arial" font-size="13px" font-style="normal" font-weight="normal" text-decoration="none" x="368.5" y="1240.5">23 : null</text></g></g><g transform="translate(10,10) scale(1,1)"><path fill="none" stroke="#000000" d="M 252 1312 L 72 1312" stroke-miterlimit="10" stroke-dasharray="3"/></g><g transform="translate(10,10) scale(1,1)"><path fill="none" stroke="#000000" d="M 82.16267485762415 1307.7904822439841 L 72 1312 L 82.16267485762415 1316.2095177560159" stroke-miterlimit="10"/></g><g transform="translate(10,10) scale(1,1)"><g><path fill="none" stroke="none"/><text fill="#000000" stroke="none" font-family="Arial" font-size="13px" font-style="normal" font-weight="normal" text-decoration="none" x="133.5" y="1328.5">24 : Astre</text></g></g><g transform="translate(10,10) scale(1,1)"><path fill="none" stroke="#000000" d="M 252 1352 L 72 1352" stroke-miterlimit="10" stroke-dasharray="3"/></g><g transform="translate(10,10) scale(1,1)"><path fill="none" stroke="#000000" d="M 82.16267485762415 1347.7904822439841 L 72 1352 L 82.16267485762415 1356.2095177560159" stroke-miterlimit="10"/></g><g transform="translate(10,10) scale(1,1)"><g><path fill="none" stroke="none"/><text fill="#000000" stroke="none" font-family="Arial" font-size="13px" font-style="normal" font-weight="normal" text-decoration="none" x="138.5" y="1368.5">25 : null</text></g></g><g transform="translate(10,10) scale(1,1)"><path fill="none" stroke="#000000" d="M 216 184 L 592 184 L 592 1264 L 216 1264 L 216 184" stroke-miterlimit="10"/></g><g transform="translate(10,10) scale(1,1)"><path fill="#ffffff" stroke="none" d="M 216 184 L 216 206 L 459.97607421875 206 L 470.97607421875 195 L 470.97607421875 184 L 216 184"/></g><g transform="translate(10,10) scale(1,1)"><path fill="none" stroke="#000000" d="M 216 184 L 216 206 L 459.97607421875 206 L 470.97607421875 195 L 470.97607421875 184 L 216 184 L 216 184" stroke-miterlimit="10"/></g><g transform="translate(10,10) scale(1,1)"><g><path fill="none" stroke="none"/><text fill="#000000" stroke="none" font-family="Arial" font-size="13px" font-style="normal" font-weight="normal" text-decoration="none" x="240.72998046875" y="201.5">Astre is Etoile &amp;&amp; Constellation!= null</text></g></g><g transform="translate(10,10) scale(1,1)"><g><path fill="none" stroke="none"/><text fill="#000000" stroke="none" font-family="Arial" font-size="13px" font-style="normal" font-weight="bold" text-decoration="none" x="221" y="201.5">alt</text></g></g><g transform="translate(10,10) scale(1,1)"><path fill="none" stroke="#000000" d="M 720 416 L 1200 416 L 1200 560 L 720 560 L 720 416" stroke-miterlimit="10"/></g><g transform="translate(10,10) scale(1,1)"><path fill="#ffffff" stroke="none" d="M 720 416 L 720 438 L 884.8779296875 438 L 895.8779296875 427 L 895.8779296875 416 L 720 416"/></g><g transform="translate(10,10) scale(1,1)"><path fill="none" stroke="#000000" d="M 720 416 L 720 438 L 884.8779296875 438 L 895.8779296875 427 L 895.8779296875 416 L 720 416 L 720 416" stroke-miterlimit="10"/></g><g transform="translate(10,10) scale(1,1)"><g><path fill="none" stroke="none"/><text fill="#000000" stroke="none" font-family="Arial" font-size="13px" font-style="normal" font-weight="normal" text-decoration="none" x="755.578125" y="433.5">Collection&lt;Segment&gt;</text></g></g><g transform="translate(10,10) scale(1,1)"><g><path fill="none" stroke="none"/><text fill="#000000" stroke="none" font-family="Arial" font-size="13px" font-style="normal" font-weight="bold" text-decoration="none" x="725" y="433.5">loop</text></g></g><g transform="translate(10,10) scale(1,1)"><path fill="none" stroke="#000000" d="M 648 616 L 1200 616 L 1200 872 L 648 872 L 648 616" stroke-miterlimit="10"/></g><g transform="translate(10,10) scale(1,1)"><path fill="#ffffff" stroke="none" d="M 648 616 L 648 638 L 812.8779296875 638 L 823.8779296875 627 L 823.8779296875 616 L 648 616"/></g><g transform="translate(10,10) scale(1,1)"><path fill="none" stroke="#000000" d="M 648 616 L 648 638 L 812.8779296875 638 L 823.8779296875 627 L 823.8779296875 616 L 648 616 L 648 616" stroke-miterlimit="10"/></g><g transform="translate(10,10) scale(1,1)"><g><path fill="none" stroke="none"/><text fill="#000000" stroke="none" font-family="Arial" font-size="13px" font-style="normal" font-weight="normal" text-decoration="none" x="683.578125" y="633.5">Collection&lt;Segment&gt;</text></g></g><g transform="translate(10,10) scale(1,1)"><g><path fill="none" stroke="none"/><text fill="#000000" stroke="none" font-family="Arial" font-size="13px" font-style="normal" font-weight="bold" text-decoration="none" x="653" y="633.5">loop</text></g></g><g transform="translate(10,10) scale(1,1)"><path fill="none" stroke="#000000" d="M 608 392 L 1216 392 L 1216 936 L 608 936 L 608 392" stroke-miterlimit="10"/></g><g transform="translate(10,10) scale(1,1)"><path fill="#ffffff" stroke="none" d="M 608 392 L 608 414 L 708.9189453125 414 L 719.9189453125 403 L 719.9189453125 392 L 608 392"/></g><g transform="translate(10,10) scale(1,1)"><path fill="none" stroke="#000000" d="M 608 392 L 608 414 L 708.9189453125 414 L 719.9189453125 403 L 719.9189453125 392 L 608 392 L 608 392" stroke-miterlimit="10"/></g><g transform="translate(10,10) scale(1,1)"><g><path fill="none" stroke="none"/><text fill="#000000" stroke="none" font-family="Arial" font-size="13px" font-style="normal" font-weight="normal" text-decoration="none" x="643.578125" y="409.5">Pile != null</text></g></g><g transform="translate(10,10) scale(1,1)"><g><path fill="none" stroke="none"/><text fill="#000000" stroke="none" font-family="Arial" font-size="13px" font-style="normal" font-weight="bold" text-decoration="none" x="613" y="409.5">loop</text></g></g><g transform="translate(10,10) scale(1,1)"><path fill="none" stroke="#000000" d="M 656 648 L 1184 648 L 1184 864 L 656 864 L 656 648" stroke-miterlimit="10"/></g><g transform="translate(10,10) scale(1,1)"><path fill="#ffffff" stroke="none" d="M 656 648 L 656 670 L 872.87158203125 670 L 883.87158203125 659 L 883.87158203125 648 L 656 648"/></g><g transform="translate(10,10) scale(1,1)"><path fill="none" stroke="#000000" d="M 656 648 L 656 670 L 872.87158203125 670 L 883.87158203125 659 L 883.87158203125 648 L 656 648 L 656 648" stroke-miterlimit="10"/></g><g transform="translate(10,10) scale(1,1)"><g><path fill="none" stroke="none"/><text fill="#000000" stroke="none" font-family="Arial" font-size="13px" font-style="normal" font-weight="normal" text-decoration="none" x="680.72998046875" y="665.5">!visite.Contains(segment.Point2)</text></g></g><g transform="translate(10,10) scale(1,1)"><g><path fill="none" stroke="none"/><text fill="#000000" stroke="none" font-family="Arial" font-size="13px" font-style="normal" font-weight="bold" text-decoration="none" x="661" y="665.5">alt</text></g></g><g transform="translate(10,10) scale(1,1)"><path fill="none" stroke="#000000" d="M 480 1008 L 846.904296875 1008 L 846.904296875 1120 L 480 1120 L 480 1008" stroke-miterlimit="10"/></g><g transform="translate(10,10) scale(1,1)"><path fill="#ffffff" stroke="none" d="M 480 1008 L 480 1030 L 829.404296875 1030 L 840.404296875 1019 L 840.404296875 1008 L 480 1008"/></g><g transform="translate(10,10) scale(1,1)"><path fill="none" stroke="#000000" d="M 480 1008 L 480 1030 L 829.404296875 1030 L 840.404296875 1019 L 840.404296875 1008 L 480 1008 L 480 1008" stroke-miterlimit="10"/></g><g transform="translate(10,10) scale(1,1)"><g><path fill="none" stroke="none"/><text fill="#000000" stroke="none" font-family="Arial" font-size="13px" font-style="normal" font-weight="normal" text-decoration="none" x="504.72998046875" y="1025.5">i == TaillePhysique - 1 || tailleLogique &gt;= TaillePhysique</text></g></g><g transform="translate(10,10) scale(1,1)"><g><path fill="none" stroke="none"/><text fill="#000000" stroke="none" font-family="Arial" font-size="13px" font-style="normal" font-weight="bold" text-decoration="none" x="485" y="1025.5">alt</text></g></g><g transform="translate(10,10) scale(1,1)"><path fill="none" stroke="#000000" d="M 216 1264 L 592 1264 L 592 1368 L 216 1368 L 216 1264" stroke-miterlimit="10"/></g><g transform="translate(10,10) scale(1,1)"><path fill="#ffffff" stroke="none" d="M 216 1264 L 216 1286 L 269.578125 1286 L 280.578125 1275 L 280.578125 1264 L 216 1264"/></g><g transform="translate(10,10) scale(1,1)"><path fill="none" stroke="#000000" d="M 216 1264 L 216 1286 L 269.578125 1286 L 280.578125 1275 L 280.578125 1264 L 216 1264 L 216 1264" stroke-miterlimit="10"/></g><g transform="translate(10,10) scale(1,1)"><g><path fill="none" stroke="none"/><text fill="#000000" stroke="none" font-family="Arial" font-size="13px" font-style="normal" font-weight="normal" text-decoration="none" x="240.72998046875" y="1281.5">else</text></g></g><g transform="translate(10,10) scale(1,1)"><g><path fill="none" stroke="none"/><text fill="#000000" stroke="none" font-family="Arial" font-size="13px" font-style="normal" font-weight="bold" text-decoration="none" x="221" y="1281.5">alt</text></g></g><g transform="translate(10,10) scale(1,1)"><path fill="none" stroke="#000000" d="M 224 1120 L 552 1120 L 552 1248 L 224 1248 L 224 1120" stroke-miterlimit="10"/></g><g transform="translate(10,10) scale(1,1)"><path fill="#ffffff" stroke="none" d="M 224 1120 L 224 1142 L 378.39794921875 1142 L 389.39794921875 1131 L 389.39794921875 1120 L 224 1120"/></g><g transform="translate(10,10) scale(1,1)"><path fill="none" stroke="#000000" d="M 224 1120 L 224 1142 L 378.39794921875 1142 L 389.39794921875 1131 L 389.39794921875 1120 L 224 1120 L 224 1120" stroke-miterlimit="10"/></g><g transform="translate(10,10) scale(1,1)"><g><path fill="none" stroke="none"/><text fill="#000000" stroke="none" font-family="Arial" font-size="13px" font-style="normal" font-weight="normal" text-decoration="none" x="259.578125" y="1137.5">Constellation != null</text></g></g><g transform="translate(10,10) scale(1,1)"><g><path fill="none" stroke="none"/><text fill="#000000" stroke="none" font-family="Arial" font-size="13px" font-style="normal" font-weight="bold" text-decoration="none" x="229" y="1137.5">loop</text></g></g></g></svg>