<svg version="1.1" xmlns="http://www.w3.org/2000/svg" xmlns:xlink="http://www.w3.org/1999/xlink" width="1316" height="964"><defs/><g><g transform="translate(-326,-1022) scale(1,1)"><rect fill="#C0C0C0" stroke="none" x="455" y="1039" width="1184" height="944" opacity="0.2"/></g><g transform="translate(-326,-1022) scale(1,1)"><rect fill="#ffffff" stroke="none" x="448" y="1032" width="1184" height="944"/></g><g transform="translate(-326,-1022) scale(1,1)"><path fill="none" stroke="#000000" d="M 448 1032 L 1632 1032 L 1632 1976 L 448 1976 L 448 1032 Z Z" stroke-miterlimit="10"/></g><g transform="translate(-326,-1022) scale(1,1)"><g><path fill="none" stroke="none"/><text fill="#000000" stroke="none" font-family="Arial" font-size="13px" font-style="normal" font-weight="bold" text-decoration="none" x="1021.575927734375" y="1051.5">Stellar</text></g></g><g transform="translate(-326,-1022) scale(1,1)"><path fill="#ffffff" stroke="none" d="M 363.60661594460225 1481.6799999999998 C 363.60661594460225 1476.8861679359998 367.49245826954774 1473 372.285888671875 1473 C 377.07931907420226 1473 380.96516139914775 1476.8861679359998 380.96516139914775 1481.6799999999998 C 380.96516139914775 1486.473832064 377.07931907420226 1490.36 372.285888671875 1490.36 C 367.49245826954774 1490.36 363.60661594460225 1486.473832064 363.60661594460225 1481.6799999999998 Z"/></g><g transform="translate(-326,-1022) scale(1,1)"><path fill="none" stroke="#000000" d="M 363.60661594460225 1481.6799999999998 C 363.60661594460225 1476.8861679359998 367.49245826954774 1473 372.285888671875 1473 C 377.07931907420226 1473 380.96516139914775 1476.8861679359998 380.96516139914775 1481.6799999999998 C 380.96516139914775 1486.473832064 377.07931907420226 1490.36 372.285888671875 1490.36 C 367.49245826954774 1490.36 363.60661594460225 1486.473832064 363.60661594460225 1481.6799999999998 Z" stroke-miterlimit="10"/></g><g transform="translate(-326,-1022) scale(1,1)"><path fill="none" stroke="#000000" d="M 372.285888671875 1490.36 L 372.285888671875 1507.64" stroke-miterlimit="10"/></g><g transform="translate(-326,-1022) scale(1,1)"><path fill="none" stroke="#000000" d="M 363.09607049005683 1496.84 L 381.47570685369317 1496.84" stroke-miterlimit="10"/></g><g transform="translate(-326,-1022) scale(1,1)"><path fill="none" stroke="#000000" d="M 372.285888671875 1507.64 L 359.52225230823865 1525" stroke-miterlimit="10"/></g><g transform="translate(-326,-1022) scale(1,1)"><path fill="none" stroke="#000000" d="M 372.285888671875 1507.64 L 385.04952503551135 1525" stroke-miterlimit="10"/></g><g transform="translate(-326,-1022) scale(1,1)"><g><path fill="none" stroke="none"/><text fill="#000000" stroke="none" font-family="Arial" font-size="13px" font-style="normal" font-weight="bold" text-decoration="none" x="343.38818359375" y="1545.5">Utilisateur</text></g></g><g transform="translate(-326,-1022) scale(1,1)"><path fill="#C0C0C0" stroke="none" d="M 514 1209 C 514 1194.6405952 544.4446336 1183 582 1183 C 619.5553664 1183 650 1194.6405952 650 1209 C 650 1223.3594048 619.5553664 1235 582 1235 C 544.4446336 1235 514 1223.3594048 514 1209 Z" opacity="0.2"/></g><g transform="translate(-326,-1022) scale(1,1)"><path fill="#ffffff" stroke="none" d="M 507 1202 C 507 1187.6405952 537.4446336 1176 575 1176 C 612.5553664 1176 643 1187.6405952 643 1202 C 643 1216.3594048 612.5553664 1228 575 1228 C 537.4446336 1228 507 1216.3594048 507 1202 Z"/></g><g transform="translate(-326,-1022) scale(1,1)"><path fill="none" stroke="#000000" d="M 507 1202 C 507 1187.6405952 537.4446336 1176 575 1176 C 612.5553664 1176 643 1187.6405952 643 1202 C 643 1216.3594048 612.5553664 1228 575 1228 C 537.4446336 1228 507 1216.3594048 507 1202 Z" stroke-miterlimit="10"/></g><g transform="translate(-326,-1022) scale(1,1)"><g><path fill="none" stroke="none"/><text fill="#000000" stroke="none" font-family="Arial" font-size="13px" font-style="normal" font-weight="bold" text-decoration="none" x="538.865966796875" y="1202.5">Charger une</text><text fill="#000000" stroke="none" font-family="Arial" font-size="13px" font-style="normal" font-weight="bold" text-decoration="none" x="551.87548828125" y="1215.5">création</text></g></g><g transform="translate(-326,-1022) scale(1,1)"><path fill="#C0C0C0" stroke="none" d="M 526 1617 C 526 1602.6405952 550.8481936 1591 581.5 1591 C 612.1518064 1591 637 1602.6405952 637 1617 C 637 1631.3594048 612.1518064 1643 581.5 1643 C 550.8481936 1643 526 1631.3594048 526 1617 Z" opacity="0.2"/></g><g transform="translate(-326,-1022) scale(1,1)"><path fill="#ffffff" stroke="none" d="M 519 1610 C 519 1595.6405952 543.8481936 1584 574.5 1584 C 605.1518064 1584 630 1595.6405952 630 1610 C 630 1624.3594048 605.1518064 1636 574.5 1636 C 543.8481936 1636 519 1624.3594048 519 1610 Z"/></g><g transform="translate(-326,-1022) scale(1,1)"><path fill="none" stroke="#000000" d="M 519 1610 C 519 1595.6405952 543.8481936 1584 574.5 1584 C 605.1518064 1584 630 1595.6405952 630 1610 C 630 1624.3594048 605.1518064 1636 574.5 1636 C 543.8481936 1636 519 1624.3594048 519 1610 Z" stroke-miterlimit="10"/></g><g transform="translate(-326,-1022) scale(1,1)"><g><path fill="none" stroke="none"/><text fill="#000000" stroke="none" font-family="Arial" font-size="13px" font-style="normal" font-weight="bold" text-decoration="none" x="542.7109375" y="1610.5">Enregistrer</text><text fill="#000000" stroke="none" font-family="Arial" font-size="13px" font-style="normal" font-weight="bold" text-decoration="none" x="550.29638671875" y="1623.5">le travail</text></g></g><g transform="translate(-326,-1022) scale(1,1)"><path fill="#C0C0C0" stroke="none" d="M 521 1545 C 521 1530.6405952 547.862912 1519 581 1519 C 614.137088 1519 641 1530.6405952 641 1545 C 641 1559.3594048 614.137088 1571 581 1571 C 547.862912 1571 521 1559.3594048 521 1545 Z" opacity="0.2"/></g><g transform="translate(-326,-1022) scale(1,1)"><path fill="#ffffff" stroke="none" d="M 514 1538 C 514 1523.6405952 540.862912 1512 574 1512 C 607.137088 1512 634 1523.6405952 634 1538 C 634 1552.3594048 607.137088 1564 574 1564 C 540.862912 1564 514 1552.3594048 514 1538 Z"/></g><g transform="translate(-326,-1022) scale(1,1)"><path fill="none" stroke="#000000" d="M 514 1538 C 514 1523.6405952 540.862912 1512 574 1512 C 607.137088 1512 634 1523.6405952 634 1538 C 634 1552.3594048 607.137088 1564 574 1564 C 540.862912 1564 514 1552.3594048 514 1538 Z" stroke-miterlimit="10"/></g><g transform="translate(-326,-1022) scale(1,1)"><g><path fill="none" stroke="none"/><text fill="#000000" stroke="none" font-family="Arial" font-size="13px" font-style="normal" font-weight="bold" text-decoration="none" x="542.569580078125" y="1538.5">Exporter la</text><text fill="#000000" stroke="none" font-family="Arial" font-size="13px" font-style="normal" font-weight="bold" text-decoration="none" x="550.87548828125" y="1551.5">création</text></g></g><g transform="translate(-326,-1022) scale(1,1)"><path fill="#C0C0C0" stroke="none" d="M 871 1905 C 871 1890.6405952 901.4446336 1879 939 1879 C 976.5553664 1879 1007 1890.6405952 1007 1905 C 1007 1919.3594048 976.5553664 1931 939 1931 C 901.4446336 1931 871 1919.3594048 871 1905 Z" opacity="0.2"/></g><g transform="translate(-326,-1022) scale(1,1)"><path fill="#ffffff" stroke="none" d="M 864 1898 C 864 1883.6405952 894.4446336 1872 932 1872 C 969.5553664 1872 1000 1883.6405952 1000 1898 C 1000 1912.3594048 969.5553664 1924 932 1924 C 894.4446336 1924 864 1912.3594048 864 1898 Z"/></g><g transform="translate(-326,-1022) scale(1,1)"><path fill="none" stroke="#000000" d="M 864 1898 C 864 1883.6405952 894.4446336 1872 932 1872 C 969.5553664 1872 1000 1883.6405952 1000 1898 C 1000 1912.3594048 969.5553664 1924 932 1924 C 894.4446336 1924 864 1912.3594048 864 1898 Z" stroke-miterlimit="10"/></g><g transform="translate(-326,-1022) scale(1,1)"><g><path fill="none" stroke="none"/><text fill="#000000" stroke="none" font-family="Arial" font-size="13px" font-style="normal" font-weight="bold" text-decoration="none" x="898.398681640625" y="1898.5">Obtenir des</text><text fill="#000000" stroke="none" font-family="Arial" font-size="13px" font-style="normal" font-weight="bold" text-decoration="none" x="896.595947265625" y="1911.5">informations</text></g></g><g transform="translate(-326,-1022) scale(1,1)"><path fill="#C0C0C0" stroke="none" d="M 514 1801 C 514 1786.6405952 544.4446336 1775 582 1775 C 619.5553664 1775 650 1786.6405952 650 1801 C 650 1815.3594048 619.5553664 1827 582 1827 C 544.4446336 1827 514 1815.3594048 514 1801 Z" opacity="0.2"/></g><g transform="translate(-326,-1022) scale(1,1)"><path fill="#ffffff" stroke="none" d="M 507 1794 C 507 1779.6405952 537.4446336 1768 575 1768 C 612.5553664 1768 643 1779.6405952 643 1794 C 643 1808.3594048 612.5553664 1820 575 1820 C 537.4446336 1820 507 1808.3594048 507 1794 Z"/></g><g transform="translate(-326,-1022) scale(1,1)"><path fill="none" stroke="#000000" d="M 507 1794 C 507 1779.6405952 537.4446336 1768 575 1768 C 612.5553664 1768 643 1779.6405952 643 1794 C 643 1808.3594048 612.5553664 1820 575 1820 C 537.4446336 1820 507 1808.3594048 507 1794 Z" stroke-miterlimit="10"/></g><g transform="translate(-326,-1022) scale(1,1)"><g><path fill="none" stroke="none"/><text fill="#000000" stroke="none" font-family="Arial" font-size="13px" font-style="normal" font-weight="bold" text-decoration="none" x="535.615966796875" y="1794.5">Chercher une</text><text fill="#000000" stroke="none" font-family="Arial" font-size="13px" font-style="normal" font-weight="bold" text-decoration="none" x="559.4609375" y="1807.5">étoile</text></g></g><g transform="translate(-326,-1022) scale(1,1)"><path fill="#C0C0C0" stroke="none" d="M 853 1430.5 C 853 1410.8938896 888.817216 1395 933 1395 C 977.182784 1395 1013 1410.8938896 1013 1430.5 C 1013 1450.1061104 977.182784 1466 933 1466 C 888.817216 1466 853 1450.1061104 853 1430.5 Z" opacity="0.2"/></g><g transform="translate(-326,-1022) scale(1,1)"><path fill="#ffffff" stroke="none" d="M 846 1423.5 C 846 1403.8938896 881.817216 1388 926 1388 C 970.182784 1388 1006 1403.8938896 1006 1423.5 C 1006 1443.1061104 970.182784 1459 926 1459 C 881.817216 1459 846 1443.1061104 846 1423.5 Z"/></g><g transform="translate(-326,-1022) scale(1,1)"><path fill="none" stroke="#000000" d="M 846 1423.5 C 846 1403.8938896 881.817216 1388 926 1388 C 970.182784 1388 1006 1403.8938896 1006 1423.5 C 1006 1443.1061104 970.182784 1459 926 1459 C 881.817216 1459 846 1443.1061104 846 1423.5 Z" stroke-miterlimit="10"/></g><g transform="translate(-326,-1022) scale(1,1)"><g><path fill="none" stroke="none"/><text fill="#000000" stroke="none" font-family="Arial" font-size="13px" font-style="normal" font-weight="bold" text-decoration="none" x="880.839599609375" y="1417.5">Créer et ajouter</text><text fill="#000000" stroke="none" font-family="Arial" font-size="13px" font-style="normal" font-weight="bold" text-decoration="none" x="885.524169921875" y="1430.5">une étoile à la</text><text fill="#000000" stroke="none" font-family="Arial" font-size="13px" font-style="normal" font-weight="bold" text-decoration="none" x="911.549560546875" y="1443.5">carte</text></g></g><g transform="translate(-326,-1022) scale(1,1)"><path fill="#C0C0C0" stroke="none" d="M 791 1801 C 791 1786.6405952 814.2811904 1775 843 1775 C 871.7188096 1775 895 1786.6405952 895 1801 C 895 1815.3594048 871.7188096 1827 843 1827 C 814.2811904 1827 791 1815.3594048 791 1801 Z" opacity="0.2"/></g><g transform="translate(-326,-1022) scale(1,1)"><path fill="#ffffff" stroke="none" d="M 784 1794 C 784 1779.6405952 807.2811904 1768 836 1768 C 864.7188096 1768 888 1779.6405952 888 1794 C 888 1808.3594048 864.7188096 1820 836 1820 C 807.2811904 1820 784 1808.3594048 784 1794 Z"/></g><g transform="translate(-326,-1022) scale(1,1)"><path fill="none" stroke="#000000" d="M 784 1794 C 784 1779.6405952 807.2811904 1768 836 1768 C 864.7188096 1768 888 1779.6405952 888 1794 C 888 1808.3594048 864.7188096 1820 836 1820 C 807.2811904 1820 784 1808.3594048 784 1794 Z" stroke-miterlimit="10"/></g><g transform="translate(-326,-1022) scale(1,1)"><g><path fill="none" stroke="none"/><text fill="#000000" stroke="none" font-family="Arial" font-size="13px" font-style="normal" font-weight="bold" text-decoration="none" x="812.5263671875" y="1794.5">Filtrer la</text><text fill="#000000" stroke="none" font-family="Arial" font-size="13px" font-style="normal" font-weight="bold" text-decoration="none" x="807.095947265625" y="1807.5">recherche</text></g></g><g transform="translate(-326,-1022) scale(1,1)"><path fill="#C0C0C0" stroke="none" d="M 1079 1914.5 C 1079 1894.8938896 1109.4446336 1879 1147 1879 C 1184.5553664 1879 1215 1894.8938896 1215 1914.5 C 1215 1934.1061104 1184.5553664 1950 1147 1950 C 1109.4446336 1950 1079 1934.1061104 1079 1914.5 Z" opacity="0.2"/></g><g transform="translate(-326,-1022) scale(1,1)"><path fill="#ffffff" stroke="none" d="M 1072 1907.5 C 1072 1887.8938896 1102.4446336 1872 1140 1872 C 1177.5553664 1872 1208 1887.8938896 1208 1907.5 C 1208 1927.1061104 1177.5553664 1943 1140 1943 C 1102.4446336 1943 1072 1927.1061104 1072 1907.5 Z"/></g><g transform="translate(-326,-1022) scale(1,1)"><path fill="none" stroke="#000000" d="M 1072 1907.5 C 1072 1887.8938896 1102.4446336 1872 1140 1872 C 1177.5553664 1872 1208 1887.8938896 1208 1907.5 C 1208 1927.1061104 1177.5553664 1943 1140 1943 C 1102.4446336 1943 1072 1927.1061104 1072 1907.5 Z" stroke-miterlimit="10"/></g><g transform="translate(-326,-1022) scale(1,1)"><g><path fill="none" stroke="none"/><text fill="#000000" stroke="none" font-family="Arial" font-size="13px" font-style="normal" font-weight="bold" text-decoration="none" x="1106.766845703125" y="1901.5">Modifier les</text><text fill="#000000" stroke="none" font-family="Arial" font-size="13px" font-style="normal" font-weight="bold" text-decoration="none" x="1106.024169921875" y="1914.5">données de</text><text fill="#000000" stroke="none" font-family="Arial" font-size="13px" font-style="normal" font-weight="bold" text-decoration="none" x="1121.77587890625" y="1927.5">l'étoile</text></g></g><g transform="translate(-326,-1022) scale(1,1)"><path fill="#C0C0C0" stroke="none" d="M 631 1918.5 C 631 1896.6847504 668.6080768 1879 715 1879 C 761.3919232 1879 799 1896.6847504 799 1918.5 C 799 1940.3152496 761.3919232 1958 715 1958 C 668.6080768 1958 631 1940.3152496 631 1918.5 Z" opacity="0.2"/></g><g transform="translate(-326,-1022) scale(1,1)"><path fill="#ffffff" stroke="none" d="M 624 1911.5 C 624 1889.6847504 661.6080768 1872 708 1872 C 754.3919232 1872 792 1889.6847504 792 1911.5 C 792 1933.3152496 754.3919232 1951 708 1951 C 661.6080768 1951 624 1933.3152496 624 1911.5 Z"/></g><g transform="translate(-326,-1022) scale(1,1)"><path fill="none" stroke="#000000" d="M 624 1911.5 C 624 1889.6847504 661.6080768 1872 708 1872 C 754.3919232 1872 792 1889.6847504 792 1911.5 C 792 1933.3152496 754.3919232 1951 708 1951 C 661.6080768 1951 624 1933.3152496 624 1911.5 Z" stroke-miterlimit="10"/></g><g transform="translate(-326,-1022) scale(1,1)"><g><path fill="none" stroke="none"/><text fill="#000000" stroke="none" font-family="Arial" font-size="13px" font-style="normal" font-weight="bold" text-decoration="none" x="678.369140625" y="1905.5">Ajouter ou</text><text fill="#000000" stroke="none" font-family="Arial" font-size="13px" font-style="normal" font-weight="bold" text-decoration="none" x="659.072265625" y="1918.5">supprimer l'étoile</text><text fill="#000000" stroke="none" font-family="Arial" font-size="13px" font-style="normal" font-weight="bold" text-decoration="none" x="676.569580078125" y="1931.5">des favoris</text></g></g><g transform="translate(-326,-1022) scale(1,1)"><path fill="#C0C0C0" stroke="none" d="M 522 1305 C 522 1290.6405952 548.862912 1279 582 1279 C 615.137088 1279 642 1290.6405952 642 1305 C 642 1319.3594048 615.137088 1331 582 1331 C 548.862912 1331 522 1319.3594048 522 1305 Z" opacity="0.2"/></g><g transform="translate(-326,-1022) scale(1,1)"><path fill="#ffffff" stroke="none" d="M 515 1298 C 515 1283.6405952 541.862912 1272 575 1272 C 608.137088 1272 635 1283.6405952 635 1298 C 635 1312.3594048 608.137088 1324 575 1324 C 541.862912 1324 515 1312.3594048 515 1298 Z"/></g><g transform="translate(-326,-1022) scale(1,1)"><path fill="none" stroke="#000000" d="M 515 1298 C 515 1283.6405952 541.862912 1272 575 1272 C 608.137088 1272 635 1283.6405952 635 1298 C 635 1312.3594048 608.137088 1324 575 1324 C 541.862912 1324 515 1312.3594048 515 1298 Z" stroke-miterlimit="10"/></g><g transform="translate(-326,-1022) scale(1,1)"><g><path fill="none" stroke="none"/><text fill="#000000" stroke="none" font-family="Arial" font-size="13px" font-style="normal" font-weight="bold" text-decoration="none" x="545.016845703125" y="1298.5">Modifier la</text><text fill="#000000" stroke="none" font-family="Arial" font-size="13px" font-style="normal" font-weight="bold" text-decoration="none" x="560.549560546875" y="1311.5">carte</text></g></g><g transform="translate(-326,-1022) scale(1,1)"><path fill="none" stroke="#000000" d="M 379 1552 L 408 1736 L 506 1770" stroke-miterlimit="10"/></g><g transform="translate(-326,-1022) scale(1,1)"><path fill="none" stroke="#000000" d="M 935 1871 L 936 1856 L 576 1856 L 575 1821" stroke-miterlimit="10"/></g><g transform="translate(-326,-1022) scale(1,1)"><path fill="#FFFFFF" stroke="none" d="M 583.9960886657418 1841.076612979238 L 575 1821 L 567.1648861188244 1841.5575044805787"/></g><g transform="translate(-326,-1022) scale(1,1)"><path fill="none" stroke="#000000" d="M 583.9960886657418 1841.076612979238 L 575 1821 L 567.1648861188244 1841.5575044805787 L 583.9960886657418 1841.076612979238" stroke-miterlimit="10"/></g><g transform="translate(-326,-1022) scale(1,1)"><path fill="none" stroke="#000000" d="M 711 1871 L 712 1856 L 576 1856 L 575 1821" stroke-miterlimit="10"/></g><g transform="translate(-326,-1022) scale(1,1)"><path fill="#FFFFFF" stroke="none" d="M 583.9960886657418 1841.076612979238 L 575 1821 L 567.1648861188244 1841.5575044805787"/></g><g transform="translate(-326,-1022) scale(1,1)"><path fill="none" stroke="#000000" d="M 583.9960886657418 1841.076612979238 L 575 1821 L 567.1648861188244 1841.5575044805787 L 583.9960886657418 1841.076612979238" stroke-miterlimit="10"/></g><g transform="translate(-326,-1022) scale(1,1)"><path fill="none" stroke="#000000" d="M 783 1794 L 644 1794" stroke-miterlimit="10" stroke-dasharray="3"/></g><g transform="translate(-326,-1022) scale(1,1)"><path fill="none" stroke="#000000" d="M 654.1626748576241 1789.7904822439841 L 644 1794 L 654.1626748576241 1798.2095177560159" stroke-miterlimit="10"/></g><g transform="translate(-326,-1022) scale(1,1)"><g><path fill="none" stroke="none"/><text fill="#000000" stroke="none" font-family="Arial" font-size="13px" font-style="normal" font-weight="normal" text-decoration="none" x="685.5" y="1812.5">«extend»</text></g></g><g transform="translate(-326,-1022) scale(1,1)"><path fill="#C0C0C0" stroke="none" d="M 743 1210.5 C 743 1190.8938896 775.2354944 1175 815 1175 C 854.7645056 1175 887 1190.8938896 887 1210.5 C 887 1230.1061104 854.7645056 1246 815 1246 C 775.2354944 1246 743 1230.1061104 743 1210.5 Z" opacity="0.2"/></g><g transform="translate(-326,-1022) scale(1,1)"><path fill="#ffffff" stroke="none" d="M 736 1203.5 C 736 1183.8938896 768.2354944 1168 808 1168 C 847.7645056 1168 880 1183.8938896 880 1203.5 C 880 1223.1061104 847.7645056 1239 808 1239 C 768.2354944 1239 736 1223.1061104 736 1203.5 Z"/></g><g transform="translate(-326,-1022) scale(1,1)"><path fill="none" stroke="#000000" d="M 736 1203.5 C 736 1183.8938896 768.2354944 1168 808 1168 C 847.7645056 1168 880 1183.8938896 880 1203.5 C 880 1223.1061104 847.7645056 1239 808 1239 C 768.2354944 1239 736 1223.1061104 736 1203.5 Z" stroke-miterlimit="10"/></g><g transform="translate(-326,-1022) scale(1,1)"><g><path fill="none" stroke="none"/><text fill="#000000" stroke="none" font-family="Arial" font-size="13px" font-style="normal" font-weight="bold" text-decoration="none" x="788.496826171875" y="1197.5">Fichier</text><text fill="#000000" stroke="none" font-family="Arial" font-size="13px" font-style="normal" font-weight="bold" text-decoration="none" x="776.921875" y="1210.5">invalide ou</text><text fill="#000000" stroke="none" font-family="Arial" font-size="13px" font-style="normal" font-weight="bold" text-decoration="none" x="780.54638671875" y="1223.5">corrompu</text></g></g><g transform="translate(-326,-1022) scale(1,1)"><path fill="none" stroke="#000000" d="M 735 1203 L 644 1202" stroke-miterlimit="10" stroke-dasharray="3"/></g><g transform="translate(-326,-1022) scale(1,1)"><path fill="none" stroke="#000000" d="M 654.2083169432913 1197.9024073914902 L 644 1202 L 654.1158056551199 1206.3209346150857" stroke-miterlimit="10"/></g><g transform="translate(-326,-1022) scale(1,1)"><g><path fill="none" stroke="none"/><text fill="#000000" stroke="none" font-family="Arial" font-size="13px" font-style="normal" font-weight="normal" text-decoration="none" x="668.5" y="1227.5">«extend»</text></g></g><g transform="translate(-326,-1022) scale(1,1)"><path fill="#C0C0C0" stroke="none" d="M 967 1738.5 C 967 1718.8938896 1011.9953776 1703 1067.5 1703 C 1123.0046224 1703 1168 1718.8938896 1168 1738.5 C 1168 1758.1061104 1123.0046224 1774 1067.5 1774 C 1011.9953776 1774 967 1758.1061104 967 1738.5 Z" opacity="0.2"/></g><g transform="translate(-326,-1022) scale(1,1)"><path fill="#ffffff" stroke="none" d="M 960 1731.5 C 960 1711.8938896 1004.9953776 1696 1060.5 1696 C 1116.0046224 1696 1161 1711.8938896 1161 1731.5 C 1161 1751.1061104 1116.0046224 1767 1060.5 1767 C 1004.9953776 1767 960 1751.1061104 960 1731.5 Z"/></g><g transform="translate(-326,-1022) scale(1,1)"><path fill="none" stroke="#000000" d="M 960 1731.5 C 960 1711.8938896 1004.9953776 1696 1060.5 1696 C 1116.0046224 1696 1161 1711.8938896 1161 1731.5 C 1161 1751.1061104 1116.0046224 1767 1060.5 1767 C 1004.9953776 1767 960 1751.1061104 960 1731.5 Z" stroke-miterlimit="10"/></g><g transform="translate(-326,-1022) scale(1,1)"><g><path fill="none" stroke="none"/><text fill="#000000" stroke="none" font-family="Arial" font-size="13px" font-style="normal" font-weight="bold" text-decoration="none" x="1001.365234375" y="1732">Afficher un message</text><text fill="#000000" stroke="none" font-family="Arial" font-size="13px" font-style="normal" font-weight="bold" text-decoration="none" x="1038.305419921875" y="1745">d'erreur</text></g></g><g transform="translate(-326,-1022) scale(1,1)"><path fill="#C0C0C0" stroke="none" d="M 510 1107 C 510 1091.5360256 542.2354944 1079 582 1079 C 621.7645056 1079 654 1091.5360256 654 1107 C 654 1122.4639744 621.7645056 1135 582 1135 C 542.2354944 1135 510 1122.4639744 510 1107 Z" opacity="0.2"/></g><g transform="translate(-326,-1022) scale(1,1)"><path fill="#ffffff" stroke="none" d="M 503 1100 C 503 1084.5360256 535.2354944 1072 575 1072 C 614.7645056 1072 647 1084.5360256 647 1100 C 647 1115.4639744 614.7645056 1128 575 1128 C 535.2354944 1128 503 1115.4639744 503 1100 Z"/></g><g transform="translate(-326,-1022) scale(1,1)"><path fill="none" stroke="#000000" d="M 503 1100 C 503 1084.5360256 535.2354944 1072 575 1072 C 614.7645056 1072 647 1084.5360256 647 1100 C 647 1115.4639744 614.7645056 1128 575 1128 C 535.2354944 1128 503 1115.4639744 503 1100 Z" stroke-miterlimit="10"/></g><g transform="translate(-326,-1022) scale(1,1)"><g><path fill="none" stroke="none"/><text fill="#000000" stroke="none" font-family="Arial" font-size="13px" font-style="normal" font-weight="bold" text-decoration="none" x="546.095947265625" y="1100.5">Créer une</text><text fill="#000000" stroke="none" font-family="Arial" font-size="13px" font-style="normal" font-weight="bold" text-decoration="none" x="534.530517578125" y="1113.5">nouvelle carte</text></g></g><g transform="translate(-326,-1022) scale(1,1)"><path fill="#C0C0C0" stroke="none" d="M 743 1105 C 743 1090.6405952 787.77152 1079 843 1079 C 898.22848 1079 943 1090.6405952 943 1105 C 943 1119.3594048 898.22848 1131 843 1131 C 787.77152 1131 743 1119.3594048 743 1105 Z" opacity="0.2"/></g><g transform="translate(-326,-1022) scale(1,1)"><path fill="#ffffff" stroke="none" d="M 736 1098 C 736 1083.6405952 780.77152 1072 836 1072 C 891.22848 1072 936 1083.6405952 936 1098 C 936 1112.3594048 891.22848 1124 836 1124 C 780.77152 1124 736 1112.3594048 736 1098 Z"/></g><g transform="translate(-326,-1022) scale(1,1)"><path fill="none" stroke="#000000" d="M 736 1098 C 736 1083.6405952 780.77152 1072 836 1072 C 891.22848 1072 936 1083.6405952 936 1098 C 936 1112.3594048 891.22848 1124 836 1124 C 780.77152 1124 736 1112.3594048 736 1098 Z" stroke-miterlimit="10"/></g><g transform="translate(-326,-1022) scale(1,1)"><g><path fill="none" stroke="none"/><text fill="#000000" stroke="none" font-family="Arial" font-size="13px" font-style="normal" font-weight="bold" text-decoration="none" x="777.11279296875" y="1098.5">Supprimer le dernier</text><text fill="#000000" stroke="none" font-family="Arial" font-size="13px" font-style="normal" font-weight="bold" text-decoration="none" x="799.869140625" y="1111.5">projet ouvert</text></g></g><g transform="translate(-326,-1022) scale(1,1)"><path fill="none" stroke="#000000" d="M 410 1516 L 513 1530" stroke-miterlimit="10"/></g><g transform="translate(-326,-1022) scale(1,1)"><path fill="none" stroke="#000000" d="M 533 1229 L 440 1288 L 384 1471" stroke-miterlimit="10"/></g><g transform="translate(-326,-1022) scale(1,1)"><path fill="none" stroke="#000000" d="M 549 1325 L 410 1472" stroke-miterlimit="10"/></g><g transform="translate(-326,-1022) scale(1,1)"><path fill="none" stroke="#000000" d="M 502 1102 L 384 1104 L 373 1471" stroke-miterlimit="10"/></g><g transform="translate(-326,-1022) scale(1,1)"><path fill="none" stroke="#000000" d="M 927 1387 L 928 1368 L 576 1368 L 575 1325" stroke-miterlimit="10"/></g><g transform="translate(-326,-1022) scale(1,1)"><path fill="#FFFFFF" stroke="none" d="M 583.8893145716651 1345.1241170351889 L 575 1325 L 567.055794992751 1345.5155942346987"/></g><g transform="translate(-326,-1022) scale(1,1)"><path fill="none" stroke="#000000" d="M 583.8893145716651 1345.1241170351889 L 575 1325 L 567.055794992751 1345.5155942346987 L 583.8893145716651 1345.1241170351889" stroke-miterlimit="10"/></g><g transform="translate(-326,-1022) scale(1,1)"><path fill="none" stroke="#000000" d="M 1066 1695 L 1084 1589" stroke-miterlimit="10" stroke-dasharray="3"/></g><g transform="translate(-326,-1022) scale(1,1)"><path fill="none" stroke="#000000" d="M 1086.4487258402823 1599.7239797537636 L 1084 1589 L 1078.1485118417368 1598.314509452124" stroke-miterlimit="10"/></g><g transform="translate(-326,-1022) scale(1,1)"><g><path fill="none" stroke="none"/><text fill="#000000" stroke="none" font-family="Arial" font-size="13px" font-style="normal" font-weight="normal" text-decoration="none" x="1018.5" y="1642.5">«extend»</text></g></g><g transform="translate(-326,-1022) scale(1,1)"><path fill="#C0C0C0" stroke="none" d="M 671 1430.5 C 671 1410.8938896 701.4446336 1395 739 1395 C 776.5553664 1395 807 1410.8938896 807 1430.5 C 807 1450.1061104 776.5553664 1466 739 1466 C 701.4446336 1466 671 1450.1061104 671 1430.5 Z" opacity="0.2"/></g><g transform="translate(-326,-1022) scale(1,1)"><path fill="#ffffff" stroke="none" d="M 664 1423.5 C 664 1403.8938896 694.4446336 1388 732 1388 C 769.5553664 1388 800 1403.8938896 800 1423.5 C 800 1443.1061104 769.5553664 1459 732 1459 C 694.4446336 1459 664 1443.1061104 664 1423.5 Z"/></g><g transform="translate(-326,-1022) scale(1,1)"><path fill="none" stroke="#000000" d="M 664 1423.5 C 664 1403.8938896 694.4446336 1388 732 1388 C 769.5553664 1388 800 1403.8938896 800 1423.5 C 800 1443.1061104 769.5553664 1459 732 1459 C 694.4446336 1459 664 1443.1061104 664 1423.5 Z" stroke-miterlimit="10"/></g><g transform="translate(-326,-1022) scale(1,1)"><g><path fill="none" stroke="none"/><text fill="#000000" stroke="none" font-family="Arial" font-size="13px" font-style="normal" font-weight="bold" text-decoration="none" x="698.754150390625" y="1417.5">Ajouter une</text><text fill="#000000" stroke="none" font-family="Arial" font-size="13px" font-style="normal" font-weight="bold" text-decoration="none" x="702.365966796875" y="1430.5">étoile déjà</text><text fill="#000000" stroke="none" font-family="Arial" font-size="13px" font-style="normal" font-weight="bold" text-decoration="none" x="705.984130859375" y="1443.5">existante</text></g></g><g transform="translate(-326,-1022) scale(1,1)"><path fill="none" stroke="#000000" d="M 729 1387 L 728 1368 L 576 1368 L 575 1325" stroke-miterlimit="10"/></g><g transform="translate(-326,-1022) scale(1,1)"><path fill="#FFFFFF" stroke="none" d="M 583.8893145716651 1345.1241170351889 L 575 1325 L 567.055794992751 1345.5155942346987"/></g><g transform="translate(-326,-1022) scale(1,1)"><path fill="none" stroke="#000000" d="M 583.8893145716651 1345.1241170351889 L 575 1325 L 567.055794992751 1345.5155942346987 L 583.8893145716651 1345.1241170351889" stroke-miterlimit="10"/></g><g transform="translate(-326,-1022) scale(1,1)"><path fill="#C0C0C0" stroke="none" d="M 509 1466.5 C 509 1446.8938896 541.2354944 1431 581 1431 C 620.7645056 1431 653 1446.8938896 653 1466.5 C 653 1486.1061104 620.7645056 1502 581 1502 C 541.2354944 1502 509 1486.1061104 509 1466.5 Z" opacity="0.2"/></g><g transform="translate(-326,-1022) scale(1,1)"><path fill="#ffffff" stroke="none" d="M 502 1459.5 C 502 1439.8938896 534.2354944 1424 574 1424 C 613.7645056 1424 646 1439.8938896 646 1459.5 C 646 1479.1061104 613.7645056 1495 574 1495 C 534.2354944 1495 502 1479.1061104 502 1459.5 Z"/></g><g transform="translate(-326,-1022) scale(1,1)"><path fill="none" stroke="#000000" d="M 502 1459.5 C 502 1439.8938896 534.2354944 1424 574 1424 C 613.7645056 1424 646 1439.8938896 646 1459.5 C 646 1479.1061104 613.7645056 1495 574 1495 C 534.2354944 1495 502 1479.1061104 502 1459.5 Z" stroke-miterlimit="10"/></g><g transform="translate(-326,-1022) scale(1,1)"><g><path fill="none" stroke="none"/><text fill="#000000" stroke="none" font-family="Arial" font-size="13px" font-style="normal" font-weight="bold" text-decoration="none" x="544.734130859375" y="1453.5">Passer en</text><text fill="#000000" stroke="none" font-family="Arial" font-size="13px" font-style="normal" font-weight="bold" text-decoration="none" x="557.740478515625" y="1466.5">mode</text><text fill="#000000" stroke="none" font-family="Arial" font-size="13px" font-style="normal" font-weight="bold" text-decoration="none" x="543.648681640625" y="1479.5">spectateur</text></g></g><g transform="translate(-326,-1022) scale(1,1)"><path fill="none" stroke="#000000" d="M 410 1501 L 501 1478" stroke-miterlimit="10"/></g><g transform="translate(-326,-1022) scale(1,1)"><path fill="#C0C0C0" stroke="none" d="M 1059 1430.5 C 1059 1410.8938896 1096.6080768 1395 1143 1395 C 1189.3919232 1395 1227 1410.8938896 1227 1430.5 C 1227 1450.1061104 1189.3919232 1466 1143 1466 C 1096.6080768 1466 1059 1450.1061104 1059 1430.5 Z" opacity="0.2"/></g><g transform="translate(-326,-1022) scale(1,1)"><path fill="#ffffff" stroke="none" d="M 1052 1423.5 C 1052 1403.8938896 1089.6080768 1388 1136 1388 C 1182.3919232 1388 1220 1403.8938896 1220 1423.5 C 1220 1443.1061104 1182.3919232 1459 1136 1459 C 1089.6080768 1459 1052 1443.1061104 1052 1423.5 Z"/></g><g transform="translate(-326,-1022) scale(1,1)"><path fill="none" stroke="#000000" d="M 1052 1423.5 C 1052 1403.8938896 1089.6080768 1388 1136 1388 C 1182.3919232 1388 1220 1403.8938896 1220 1423.5 C 1220 1443.1061104 1182.3919232 1459 1136 1459 C 1089.6080768 1459 1052 1443.1061104 1052 1423.5 Z" stroke-miterlimit="10"/></g><g transform="translate(-326,-1022) scale(1,1)"><g><path fill="none" stroke="none"/><text fill="#000000" stroke="none" font-family="Arial" font-size="13px" font-style="normal" font-weight="bold" text-decoration="none" x="1086.142333984375" y="1417.5">Relier des étoiles</text><text fill="#000000" stroke="none" font-family="Arial" font-size="13px" font-style="normal" font-weight="bold" text-decoration="none" x="1113.95458984375" y="1430.5">par une</text><text fill="#000000" stroke="none" font-family="Arial" font-size="13px" font-style="normal" font-weight="bold" text-decoration="none" x="1099.865966796875" y="1443.5">constellation</text></g></g><g transform="translate(-326,-1022) scale(1,1)"><path fill="#C0C0C0" stroke="none" d="M 1273 1430.5 C 1273 1410.8938896 1312.3989376 1395 1361 1395 C 1409.6010624 1395 1449 1410.8938896 1449 1430.5 C 1449 1450.1061104 1409.6010624 1466 1361 1466 C 1312.3989376 1466 1273 1450.1061104 1273 1430.5 Z" opacity="0.2"/></g><g transform="translate(-326,-1022) scale(1,1)"><path fill="#ffffff" stroke="none" d="M 1266 1423.5 C 1266 1403.8938896 1305.3989376 1388 1354 1388 C 1402.6010624 1388 1442 1403.8938896 1442 1423.5 C 1442 1443.1061104 1402.6010624 1459 1354 1459 C 1305.3989376 1459 1266 1443.1061104 1266 1423.5 Z"/></g><g transform="translate(-326,-1022) scale(1,1)"><path fill="none" stroke="#000000" d="M 1266 1423.5 C 1266 1403.8938896 1305.3989376 1388 1354 1388 C 1402.6010624 1388 1442 1403.8938896 1442 1423.5 C 1442 1443.1061104 1402.6010624 1459 1354 1459 C 1305.3989376 1459 1266 1443.1061104 1266 1423.5 Z" stroke-miterlimit="10"/></g><g transform="translate(-326,-1022) scale(1,1)"><g><path fill="none" stroke="none"/><text fill="#000000" stroke="none" font-family="Arial" font-size="13px" font-style="normal" font-weight="bold" text-decoration="none" x="1317.15185546875" y="1417.5">Supprimer la</text><text fill="#000000" stroke="none" font-family="Arial" font-size="13px" font-style="normal" font-weight="bold" text-decoration="none" x="1317.865966796875" y="1430.5">constellation</text><text fill="#000000" stroke="none" font-family="Arial" font-size="13px" font-style="normal" font-weight="bold" text-decoration="none" x="1320.9541015625" y="1443.5">d'une étoile</text></g></g><g transform="translate(-326,-1022) scale(1,1)"><path fill="#C0C0C0" stroke="none" d="M 1495 1430 C 1495 1415.6405952 1525.4446336 1404 1563 1404 C 1600.5553664 1404 1631 1415.6405952 1631 1430 C 1631 1444.3594048 1600.5553664 1456 1563 1456 C 1525.4446336 1456 1495 1444.3594048 1495 1430 Z" opacity="0.2"/></g><g transform="translate(-326,-1022) scale(1,1)"><path fill="#ffffff" stroke="none" d="M 1488 1423 C 1488 1408.6405952 1518.4446336 1397 1556 1397 C 1593.5553664 1397 1624 1408.6405952 1624 1423 C 1624 1437.3594048 1593.5553664 1449 1556 1449 C 1518.4446336 1449 1488 1437.3594048 1488 1423 Z"/></g><g transform="translate(-326,-1022) scale(1,1)"><path fill="none" stroke="#000000" d="M 1488 1423 C 1488 1408.6405952 1518.4446336 1397 1556 1397 C 1593.5553664 1397 1624 1408.6405952 1624 1423 C 1624 1437.3594048 1593.5553664 1449 1556 1449 C 1518.4446336 1449 1488 1437.3594048 1488 1423 Z" stroke-miterlimit="10"/></g><g transform="translate(-326,-1022) scale(1,1)"><g><path fill="none" stroke="none"/><text fill="#000000" stroke="none" font-family="Arial" font-size="13px" font-style="normal" font-weight="bold" text-decoration="none" x="1526.016845703125" y="1423.5">Supprimer</text><text fill="#000000" stroke="none" font-family="Arial" font-size="13px" font-style="normal" font-weight="bold" text-decoration="none" x="1527.81005859375" y="1436.5">une étoile</text></g></g><g transform="translate(-326,-1022) scale(1,1)"><path fill="none" stroke="#000000" d="M 1136 1387 L 1136 1368 L 576 1368 L 575 1325" stroke-miterlimit="10"/></g><g transform="translate(-326,-1022) scale(1,1)"><path fill="#FFFFFF" stroke="none" d="M 583.8893145716651 1345.1241170351889 L 575 1325 L 567.055794992751 1345.5155942346987"/></g><g transform="translate(-326,-1022) scale(1,1)"><path fill="none" stroke="#000000" d="M 583.8893145716651 1345.1241170351889 L 575 1325 L 567.055794992751 1345.5155942346987 L 583.8893145716651 1345.1241170351889" stroke-miterlimit="10"/></g><g transform="translate(-326,-1022) scale(1,1)"><path fill="none" stroke="#000000" d="M 1353 1387 L 1352 1368 L 576 1368 L 575 1325" stroke-miterlimit="10"/></g><g transform="translate(-326,-1022) scale(1,1)"><path fill="#FFFFFF" stroke="none" d="M 583.8893145716651 1345.1241170351889 L 575 1325 L 567.055794992751 1345.5155942346987"/></g><g transform="translate(-326,-1022) scale(1,1)"><path fill="none" stroke="#000000" d="M 583.8893145716651 1345.1241170351889 L 575 1325 L 567.055794992751 1345.5155942346987 L 583.8893145716651 1345.1241170351889" stroke-miterlimit="10"/></g><g transform="translate(-326,-1022) scale(1,1)"><path fill="none" stroke="#000000" d="M 1558 1396 L 1560 1368 L 576 1368 L 575 1325" stroke-miterlimit="10"/></g><g transform="translate(-326,-1022) scale(1,1)"><path fill="#FFFFFF" stroke="none" d="M 583.8893145716651 1345.1241170351889 L 575 1325 L 567.055794992751 1345.5155942346987"/></g><g transform="translate(-326,-1022) scale(1,1)"><path fill="none" stroke="#000000" d="M 583.8893145716651 1345.1241170351889 L 575 1325 L 567.055794992751 1345.5155942346987 L 583.8893145716651 1345.1241170351889" stroke-miterlimit="10"/></g><g transform="translate(-326,-1022) scale(1,1)"><path fill="#C0C0C0" stroke="none" d="M 523 1696 C 523 1686.6111584 548.9674816 1679 581 1679 C 613.0325184 1679 639 1686.6111584 639 1696 C 639 1705.3888416 613.0325184 1713 581 1713 C 548.9674816 1713 523 1705.3888416 523 1696 Z" opacity="0.2"/></g><g transform="translate(-326,-1022) scale(1,1)"><path fill="#ffffff" stroke="none" d="M 516 1689 C 516 1679.6111584 541.9674816 1672 574 1672 C 606.0325184 1672 632 1679.6111584 632 1689 C 632 1698.3888416 606.0325184 1706 574 1706 C 541.9674816 1706 516 1698.3888416 516 1689 Z"/></g><g transform="translate(-326,-1022) scale(1,1)"><path fill="none" stroke="#000000" d="M 516 1689 C 516 1679.6111584 541.9674816 1672 574 1672 C 606.0325184 1672 632 1679.6111584 632 1689 C 632 1698.3888416 606.0325184 1706 574 1706 C 541.9674816 1706 516 1698.3888416 516 1689 Z" stroke-miterlimit="10"/></g><g transform="translate(-326,-1022) scale(1,1)"><g><path fill="none" stroke="none"/><text fill="#000000" stroke="none" font-family="Arial" font-size="13px" font-style="normal" font-weight="bold" text-decoration="none" x="540.154296875" y="1696">Tout effacer</text></g></g><g transform="translate(-326,-1022) scale(1,1)"><path fill="none" stroke="#000000" d="M 395 1552 L 432 1616 L 539 1671" stroke-miterlimit="10"/></g><g transform="translate(-326,-1022) scale(1,1)"><path fill="#C0C0C0" stroke="none" d="M 999 1569 C 999 1554.6405952 1041.9806592 1543 1095 1543 C 1148.0193408 1543 1191 1554.6405952 1191 1569 C 1191 1583.3594048 1148.0193408 1595 1095 1595 C 1041.9806592 1595 999 1583.3594048 999 1569 Z" opacity="0.2"/></g><g transform="translate(-326,-1022) scale(1,1)"><path fill="#ffffff" stroke="none" d="M 992 1562 C 992 1547.6405952 1034.9806592 1536 1088 1536 C 1141.0193408 1536 1184 1547.6405952 1184 1562 C 1184 1576.3594048 1141.0193408 1588 1088 1588 C 1034.9806592 1588 992 1576.3594048 992 1562 Z"/></g><g transform="translate(-326,-1022) scale(1,1)"><path fill="none" stroke="#000000" d="M 992 1562 C 992 1547.6405952 1034.9806592 1536 1088 1536 C 1141.0193408 1536 1184 1547.6405952 1184 1562 C 1184 1576.3594048 1141.0193408 1588 1088 1588 C 1034.9806592 1588 992 1576.3594048 992 1562 Z" stroke-miterlimit="10"/></g><g transform="translate(-326,-1022) scale(1,1)"><g><path fill="none" stroke="none"/><text fill="#000000" stroke="none" font-family="Arial" font-size="13px" font-style="normal" font-weight="bold" text-decoration="none" x="1030.92822265625" y="1562.5">Remplir les champs</text><text fill="#000000" stroke="none" font-family="Arial" font-size="13px" font-style="normal" font-weight="bold" text-decoration="none" x="1053.31640625" y="1575.5">nécessaires</text></g></g><g transform="translate(-326,-1022) scale(1,1)"><path fill="none" stroke="#000000" d="M 969 1460 L 1057 1535" stroke-miterlimit="10" stroke-dasharray="3"/></g><g transform="translate(-326,-1022) scale(1,1)"><path fill="none" stroke="#000000" d="M 1046.5348273890147 1531.6117611916686 L 1057 1535 L 1051.9958521181352 1525.204158842834" stroke-miterlimit="10"/></g><g transform="translate(-326,-1022) scale(1,1)"><g><path fill="none" stroke="none"/><text fill="#000000" stroke="none" font-family="Arial" font-size="13px" font-style="normal" font-weight="normal" text-decoration="none" x="1004.5" y="1480.5">«include»</text></g></g><g transform="translate(-326,-1022) scale(1,1)"><path fill="none" stroke="#000000" d="M 519 1583 L 410 1529" stroke-miterlimit="10"/></g><g transform="translate(-326,-1022) scale(1,1)"><path fill="#C0C0C0" stroke="none" d="M 711 1697 C 711 1682.6405952 743.2354944 1671 783 1671 C 822.7645056 1671 855 1682.6405952 855 1697 C 855 1711.3594048 822.7645056 1723 783 1723 C 743.2354944 1723 711 1711.3594048 711 1697 Z" opacity="0.2"/></g><g transform="translate(-326,-1022) scale(1,1)"><path fill="#ffffff" stroke="none" d="M 704 1690 C 704 1675.6405952 736.2354944 1664 776 1664 C 815.7645056 1664 848 1675.6405952 848 1690 C 848 1704.3594048 815.7645056 1716 776 1716 C 736.2354944 1716 704 1704.3594048 704 1690 Z"/></g><g transform="translate(-326,-1022) scale(1,1)"><path fill="none" stroke="#000000" d="M 704 1690 C 704 1675.6405952 736.2354944 1664 776 1664 C 815.7645056 1664 848 1675.6405952 848 1690 C 848 1704.3594048 815.7645056 1716 776 1716 C 736.2354944 1716 704 1704.3594048 704 1690 Z" stroke-miterlimit="10"/></g><g transform="translate(-326,-1022) scale(1,1)"><g><path fill="none" stroke="none"/><text fill="#000000" stroke="none" font-family="Arial" font-size="13px" font-style="normal" font-weight="bold" text-decoration="none" x="738.786865234375" y="1690.5">Demander la</text><text fill="#000000" stroke="none" font-family="Arial" font-size="13px" font-style="normal" font-weight="bold" text-decoration="none" x="740.595947265625" y="1703.5">confirmation</text></g></g><g transform="translate(-326,-1022) scale(1,1)"><path fill="none" stroke="#000000" d="M 633 1689 L 703 1690" stroke-miterlimit="10" stroke-dasharray="3"/></g><g transform="translate(-326,-1022) scale(1,1)"><path fill="none" stroke="#000000" d="M 692.7782321587569 1694.0639220218561 L 703 1690 L 692.8984918238746 1685.6457454636102" stroke-miterlimit="10"/></g><g transform="translate(-326,-1022) scale(1,1)"><g><path fill="none" stroke="none"/><text fill="#000000" stroke="none" font-family="Arial" font-size="13px" font-style="normal" font-weight="normal" text-decoration="none" x="640.5" y="1665.5">«include»</text></g></g><g transform="translate(-326,-1022) scale(1,1)"><path fill="none" stroke="#000000" d="M 1487 1423 L 1443 1423" stroke-miterlimit="10" stroke-dasharray="3"/></g><g transform="translate(-326,-1022) scale(1,1)"><path fill="none" stroke="#000000" d="M 1453.162674857624 1418.7904822439841 L 1443 1423 L 1453.162674857624 1427.2095177560159" stroke-miterlimit="10"/></g><g transform="translate(-326,-1022) scale(1,1)"><g><path fill="none" stroke="none"/><text fill="#000000" stroke="none" font-family="Arial" font-size="13px" font-style="normal" font-weight="normal" text-decoration="none" x="1436.5" y="1459.5">«include»</text></g></g><g transform="translate(-326,-1022) scale(1,1)"><path fill="none" stroke="#000000" d="M 735 1099 L 648 1099" stroke-miterlimit="10" stroke-dasharray="3"/></g><g transform="translate(-326,-1022) scale(1,1)"><path fill="none" stroke="#000000" d="M 658.1626748576241 1094.7904822439841 L 648 1099 L 658.1626748576241 1103.2095177560159" stroke-miterlimit="10"/></g><g transform="translate(-326,-1022) scale(1,1)"><g><path fill="none" stroke="none"/><text fill="#000000" stroke="none" font-family="Arial" font-size="13px" font-style="normal" font-weight="normal" text-decoration="none" x="663.5" y="1116.5">«extend»</text></g></g><g transform="translate(-326,-1022) scale(1,1)"><path fill="none" stroke="#000000" d="M 768 1125 L 643 1175" stroke-miterlimit="10" stroke-dasharray="3"/></g><g transform="translate(-326,-1022) scale(1,1)"><path fill="none" stroke="#000000" d="M 650.8724310758183 1167.3172381947315 L 643 1175 L 653.9991823688811 1175.1341164273886" stroke-miterlimit="10"/></g><g transform="translate(-326,-1022) scale(1,1)"><g><path fill="none" stroke="none"/><text fill="#000000" stroke="none" font-family="Arial" font-size="13px" font-style="normal" font-weight="normal" text-decoration="none" x="710.5" y="1156.5">«extend»</text></g></g><g transform="translate(-326,-1022) scale(1,1)"><path fill="none" stroke="#000000" d="M 1143 1871 L 1144 1856 L 576 1856 L 575 1821" stroke-miterlimit="10"/></g><g transform="translate(-326,-1022) scale(1,1)"><path fill="#FFFFFF" stroke="none" d="M 583.9960886657418 1841.076612979238 L 575 1821 L 567.1648861188244 1841.5575044805787"/></g><g transform="translate(-326,-1022) scale(1,1)"><path fill="none" stroke="#000000" d="M 583.9960886657418 1841.076612979238 L 575 1821 L 567.1648861188244 1841.5575044805787 L 583.9960886657418 1841.076612979238" stroke-miterlimit="10"/></g><g transform="translate(-326,-1022) scale(1,1)"><path fill="none" stroke="#000000" d="M 1005 1695 L 872 1608 L 760 1460" stroke-miterlimit="10" stroke-dasharray="3"/></g><g transform="translate(-326,-1022) scale(1,1)"><path fill="none" stroke="#000000" d="M 769.4892879912657 1465.563579191386 L 760 1460 L 762.7758953133587 1470.6439844611534" stroke-miterlimit="10"/></g><g transform="translate(-326,-1022) scale(1,1)"><g><path fill="none" stroke="none"/><text fill="#000000" stroke="none" font-family="Arial" font-size="13px" font-style="normal" font-weight="normal" text-decoration="none" x="847.5" y="1564.5">«extend»</text></g></g></g></svg>