<svg version="1.1" xmlns="http://www.w3.org/2000/svg" xmlns:xlink="http://www.w3.org/1999/xlink" width="1316" height="964"><defs/><g><g transform="translate(-326,-1022) scale(1,1)"><rect fill="#C0C0C0" stroke="none" x="455" y="1039" width="1184" height="944" opacity="0.2"/></g><g transform="translate(-326,-1022) scale(1,1)"><rect fill="#ffffff" stroke="none" x="448" y="1032" width="1184" height="944"/></g><g transform="translate(-326,-1022) scale(1,1)"><path fill="none" stroke="#000000" d="M 448 1032 L 1632 1032 L 1632 1976 L 448 1976 L 448 1032 Z Z" stroke-miterlimit="10"/></g><g transform="translate(-326,-1022) scale(1,1)"><g><path fill="none" stroke="none"/><text fill="#000000" stroke="none" font-family="Arial" font-size="13px" font-style="normal" font-weight="bold" text-decoration="none" x="1021.575927734375" y="1051.5">Stellar</text></g></g><g transform="translate(-326,-1022) scale(1,1)"><path fill="#ffffff" stroke="none" d="M 363.60661594460225 1481.6799999999998 C 363.60661594460225 1476.8861679359998 367.49245826954774 1473 372.285888671875 1473 C 377.07931907420226 1473 380.96516139914775 1476.8861679359998 380.96516139914775 1481.6799999999998 C 380.96516139914775 1486.473832064 377.07931907420226 1490.36 372.285888671875 1490.36 C 367.49245826954774 1490.36 363.60661594460225 1486.473832064 363.60661594460225 1481.6799999999998 Z"/></g><g transform="translate(-326,-1022) scale(1,1)"><path fill="none" stroke="#000000" d="M 363.60661594460225 1481.6799999999998 C 363.60661594460225 1476.8861679359998 367.49245826954774 1473 372.285888671875 1473 C 377.07931907420226 1473 380.96516139914775 1476.8861679359998 380.96516139914775 1481.6799999999998 C 380.96516139914775 1486.473832064 377.07931907420226 1490.36 372.285888671875 1490.36 C 367.49245826954774 1490.36 363.60661594460225 1486.473832064 363.60661594460225 1481.6799999999998 Z" stroke-miterlimit="10"/></g><g transform="translate(-326,-1022) scale(1,1)"><path fill="none" stroke="#000000" d="M 372.285888671875 1490.36 L 372.285888671875 1507.64" stroke-miterlimit="10"/></g><g transform="translate(-326,-1022) scale(1,1)"><path fill="none" stroke="#000000" d="M 363.09607049005683 1496.84 L 381.47570685369317 1496.84" stroke-miterlimit="10"/></g><g transform="translate(-326,-1022) scale(1,1)"><path fill="none" stroke="#000000" d="M 372.285888671875 1507.64 L 359.52225230823865 1525" stroke-miterlimit="10"/></g><g transform="translate(-326,-1022) scale(1,1)"><path fill="none" stroke="#000000" d="M 372.285888671875 1507.64 L 385.04952503551135 1525" stroke-miterlimit="10"/></g><g transform="translate(-326,-1022) scale(1,1)"><g><path fill="none" stroke="none"/><text fill="#000000" stroke="none" font-family="Arial" font-size="13px" font-style="normal" font-weight="bold" text-decoration="none" x="343.38818359375" y="1545.5">Utilisateur</text></g></g><g transform="translate(-326,-1022) scale(1,1)"><path fill="#C0C0C0" stroke="none" d="M 514 1209 C 514 1194.6405952 544.4446336 1183 582 1183 C 619.5553664 1183 650 1194.6405952 650 1209 C 650 1223.3594048 619.5553664 1235 582 1235 C 544.4446336 1235 514 1223.3594048 514 1209 Z" opacity="0.2"/></g><g transform="translate(-326,-1022) scale(1,1)"><path fill="#ffffff" stroke="none" d="M 507 1202 C 507 1187.6405952 537.4446336 1176 575 1176 C 612.5553664 1176 643 1187.6405952 643 1202 C 643 1216.3594048 612.5553664 1228 575 1228 C 537.4446336 1228 507 1216.3594048 507 1202 Z"/></g><g transform="translate(-326,-1022) scale(1,1)"><path fill="none" stroke="#000000" d="M 507 1202 C 507 1187.6405952 537.4446336 1176 575 1176 C 612.5553664 1176 643 1187.6405952 643 1202 C 643 1216.3594048 612.5553664 1228 575 1228 C 537.4446336 1228 507 1216.3594048 507 1202 Z" stroke-miterlimit="10"/></g><g transform="translate(-326,-1022) scale(1,1)"><g><path fill="none" stroke="none"/><text fill="#000000" stroke="none" font-family="Arial" font-size="13px" font-style="normal" font-weight="bold" text-decoration="none" x="538.865966796875" y="1202.5">Charger une</text><text fill="#000000" stroke="none" font-family="Arial" font-size="13px" font-style="normal" font-weight="bold" text-decoration="none" x="551.87548828125" y="1215.5">création</text></g></g><g transform="translate(-326,-1022) scale(1,1)"><path fill="#C0C0C0" stroke="none" d="M 527 1689 C 527 1674.6405952 551.8481936 1663 582.5 1663 C 613.1518064 1663 638 1674.6405952 638 1689 C 638 1703.3594048 613.1518064 1715 582.5 1715 C 551.8481936 1715 527 1703.3594048 527 1689 Z" opacity="0.2"/></g><g transform="translate(-326,-1022) scale(1,1)"><path fill="#ffffff" stroke="none" d="M 520 1682 C 520 1667.6405952 544.8481936 1656 575.5 1656 C 606.1518064 1656 631 1667.6405952 631 1682 C 631 1696.3594048 606.1518064 1708 575.5 1708 C 544.8481936 1708 520 1696.3594048 520 1682 Z"/></g><g transform="translate(-326,-1022) scale(1,1)"><path fill="none" stroke="#000000" d="M 520 1682 C 520 1667.6405952 544.8481936 1656 575.5 1656 C 606.1518064 1656 631 1667.6405952 631 1682 C 631 1696.3594048 606.1518064 1708 575.5 1708 C 544.8481936 1708 520 1696.3594048 520 1682 Z" stroke-miterlimit="10"/></g><g transform="translate(-326,-1022) scale(1,1)"><g><path fill="none" stroke="none"/><text fill="#000000" stroke="none" font-family="Arial" font-size="13px" font-style="normal" font-weight="bold" text-decoration="none" x="543.7109375" y="1682.5">Enregistrer</text><text fill="#000000" stroke="none" font-family="Arial" font-size="13px" font-style="normal" font-weight="bold" text-decoration="none" x="551.29638671875" y="1695.5">le travail</text></g></g><g transform="translate(-326,-1022) scale(1,1)"><path fill="#C0C0C0" stroke="none" d="M 521 1577 C 521 1562.6405952 547.862912 1551 581 1551 C 614.137088 1551 641 1562.6405952 641 1577 C 641 1591.3594048 614.137088 1603 581 1603 C 547.862912 1603 521 1591.3594048 521 1577 Z" opacity="0.2"/></g><g transform="translate(-326,-1022) scale(1,1)"><path fill="#ffffff" stroke="none" d="M 514 1570 C 514 1555.6405952 540.862912 1544 574 1544 C 607.137088 1544 634 1555.6405952 634 1570 C 634 1584.3594048 607.137088 1596 574 1596 C 540.862912 1596 514 1584.3594048 514 1570 Z"/></g><g transform="translate(-326,-1022) scale(1,1)"><path fill="none" stroke="#000000" d="M 514 1570 C 514 1555.6405952 540.862912 1544 574 1544 C 607.137088 1544 634 1555.6405952 634 1570 C 634 1584.3594048 607.137088 1596 574 1596 C 540.862912 1596 514 1584.3594048 514 1570 Z" stroke-miterlimit="10"/></g><g transform="translate(-326,-1022) scale(1,1)"><g><path fill="none" stroke="none"/><text fill="#000000" stroke="none" font-family="Arial" font-size="13px" font-style="normal" font-weight="bold" text-decoration="none" x="542.569580078125" y="1570.5">Exporter la</text><text fill="#000000" stroke="none" font-family="Arial" font-size="13px" font-style="normal" font-weight="bold" text-decoration="none" x="550.87548828125" y="1583.5">création</text></g></g><g transform="translate(-326,-1022) scale(1,1)"><path fill="#C0C0C0" stroke="none" d="M 871 1905 C 871 1890.6405952 901.4446336 1879 939 1879 C 976.5553664 1879 1007 1890.6405952 1007 1905 C 1007 1919.3594048 976.5553664 1931 939 1931 C 901.4446336 1931 871 1919.3594048 871 1905 Z" opacity="0.2"/></g><g transform="translate(-326,-1022) scale(1,1)"><path fill="#ffffff" stroke="none" d="M 864 1898 C 864 1883.6405952 894.4446336 1872 932 1872 C 969.5553664 1872 1000 1883.6405952 1000 1898 C 1000 1912.3594048 969.5553664 1924 932 1924 C 894.4446336 1924 864 1912.3594048 864 1898 Z"/></g><g transform="translate(-326,-1022) scale(1,1)"><path fill="none" stroke="#000000" d="M 864 1898 C 864 1883.6405952 894.4446336 1872 932 1872 C 969.5553664 1872 1000 1883.6405952 1000 1898 C 1000 1912.3594048 969.5553664 1924 932 1924 C 894.4446336 1924 864 1912.3594048 864 1898 Z" stroke-miterlimit="10"/></g><g transform="translate(-326,-1022) scale(1,1)"><g><path fill="none" stroke="none"/><text fill="#000000" stroke="none" font-family="Arial" font-size="13px" font-style="normal" font-weight="bold" text-decoration="none" x="898.398681640625" y="1898.5">Obtenir des</text><text fill="#000000" stroke="none" font-family="Arial" font-size="13px" font-style="normal" font-weight="bold" text-decoration="none" x="896.595947265625" y="1911.5">informations</text></g></g><g transform="translate(-326,-1022) scale(1,1)"><path fill="#C0C0C0" stroke="none" d="M 514 1801 C 514 1786.6405952 544.4446336 1775 582 1775 C 619.5553664 1775 650 1786.6405952 650 1801 C 650 1815.3594048 619.5553664 1827 582 1827 C 544.4446336 1827 514 1815.3594048 514 1801 Z" opacity="0.2"/></g><g transform="translate(-326,-1022) scale(1,1)"><path fill="#ffffff" stroke="none" d="M 507 1794 C 507 1779.6405952 537.4446336 1768 575 1768 C 612.5553664 1768 643 1779.6405952 643 1794 C 643 1808.3594048 612.5553664 1820 575 1820 C 537.4446336 1820 507 1808.3594048 507 1794 Z"/></g><g transform="translate(-326,-1022) scale(1,1)"><path fill="none" stroke="#000000" d="M 507 1794 C 507 1779.6405952 537.4446336 1768 575 1768 C 612.5553664 1768 643 1779.6405952 643 1794 C 643 1808.3594048 612.5553664 1820 575 1820 C 537.4446336 1820 507 1808.3594048 507 1794 Z" stroke-miterlimit="10"/></g><g transform="translate(-326,-1022) scale(1,1)"><g><path fill="none" stroke="none"/><text fill="#000000" stroke="none" font-family="Arial" font-size="13px" font-style="normal" font-weight="bold" text-decoration="none" x="535.615966796875" y="1794.5">Chercher une</text><text fill="#000000" stroke="none" font-family="Arial" font-size="13px" font-style="normal" font-weight="bold" text-decoration="none" x="559.4609375" y="1807.5">étoile</text></g></g><g transform="translate(-326,-1022) scale(1,1)"><path fill="#C0C0C0" stroke="none" d="M 807 1435.5 C 807 1410.9233264 837.4446336 1391 875 1391 C 912.5553664 1391 943 1410.9233264 943 1435.5 C 943 1460.0766736 912.5553664 1480 875 1480 C 837.4446336 1480 807 1460.0766736 807 1435.5 Z" opacity="0.2"/></g><g transform="translate(-326,-1022) scale(1,1)"><path fill="#ffffff" stroke="none" d="M 800 1428.5 C 800 1403.9233264 830.4446336 1384 868 1384 C 905.5553664 1384 936 1403.9233264 936 1428.5 C 936 1453.0766736 905.5553664 1473 868 1473 C 830.4446336 1473 800 1453.0766736 800 1428.5 Z"/></g><g transform="translate(-326,-1022) scale(1,1)"><path fill="none" stroke="#000000" d="M 800 1428.5 C 800 1403.9233264 830.4446336 1384 868 1384 C 905.5553664 1384 936 1403.9233264 936 1428.5 C 936 1453.0766736 905.5553664 1473 868 1473 C 830.4446336 1473 800 1453.0766736 800 1428.5 Z" stroke-miterlimit="10"/></g><g transform="translate(-326,-1022) scale(1,1)"><g><path fill="none" stroke="none"/><text fill="#000000" stroke="none" font-family="Arial" font-size="13px" font-style="normal" font-weight="bold" text-decoration="none" x="844.52001953125" y="1416">Créer et</text><text fill="#000000" stroke="none" font-family="Arial" font-size="13px" font-style="normal" font-weight="bold" text-decoration="none" x="835.474609375" y="1429">ajouter une</text><text fill="#000000" stroke="none" font-family="Arial" font-size="13px" font-style="normal" font-weight="bold" text-decoration="none" x="840.175048828125" y="1442">étoile à la</text><text fill="#000000" stroke="none" font-family="Arial" font-size="13px" font-style="normal" font-weight="bold" text-decoration="none" x="853.549560546875" y="1455">carte</text></g></g><g transform="translate(-326,-1022) scale(1,1)"><path fill="#C0C0C0" stroke="none" d="M 791 1801 C 791 1786.6405952 814.2811904 1775 843 1775 C 871.7188096 1775 895 1786.6405952 895 1801 C 895 1815.3594048 871.7188096 1827 843 1827 C 814.2811904 1827 791 1815.3594048 791 1801 Z" opacity="0.2"/></g><g transform="translate(-326,-1022) scale(1,1)"><path fill="#ffffff" stroke="none" d="M 784 1794 C 784 1779.6405952 807.2811904 1768 836 1768 C 864.7188096 1768 888 1779.6405952 888 1794 C 888 1808.3594048 864.7188096 1820 836 1820 C 807.2811904 1820 784 1808.3594048 784 1794 Z"/></g><g transform="translate(-326,-1022) scale(1,1)"><path fill="none" stroke="#000000" d="M 784 1794 C 784 1779.6405952 807.2811904 1768 836 1768 C 864.7188096 1768 888 1779.6405952 888 1794 C 888 1808.3594048 864.7188096 1820 836 1820 C 807.2811904 1820 784 1808.3594048 784 1794 Z" stroke-miterlimit="10"/></g><g transform="translate(-326,-1022) scale(1,1)"><g><path fill="none" stroke="none"/><text fill="#000000" stroke="none" font-family="Arial" font-size="13px" font-style="normal" font-weight="bold" text-decoration="none" x="812.5263671875" y="1794.5">Filtrer la</text><text fill="#000000" stroke="none" font-family="Arial" font-size="13px" font-style="normal" font-weight="bold" text-decoration="none" x="807.095947265625" y="1807.5">recherche</text></g></g><g transform="translate(-326,-1022) scale(1,1)"><path fill="#C0C0C0" stroke="none" d="M 1079 1914.5 C 1079 1894.8938896 1109.4446336 1879 1147 1879 C 1184.5553664 1879 1215 1894.8938896 1215 1914.5 C 1215 1934.1061104 1184.5553664 1950 1147 1950 C 1109.4446336 1950 1079 1934.1061104 1079 1914.5 Z" opacity="0.2"/></g><g transform="translate(-326,-1022) scale(1,1)"><path fill="#ffffff" stroke="none" d="M 1072 1907.5 C 1072 1887.8938896 1102.4446336 1872 1140 1872 C 1177.5553664 1872 1208 1887.8938896 1208 1907.5 C 1208 1927.1061104 1177.5553664 1943 1140 1943 C 1102.4446336 1943 1072 1927.1061104 1072 1907.5 Z"/></g><g transform="translate(-326,-1022) scale(1,1)"><path fill="none" stroke="#000000" d="M 1072 1907.5 C 1072 1887.8938896 1102.4446336 1872 1140 1872 C 1177.5553664 1872 1208 1887.8938896 1208 1907.5 C 1208 1927.1061104 1177.5553664 1943 1140 1943 C 1102.4446336 1943 1072 1927.1061104 1072 1907.5 Z" stroke-miterlimit="10"/></g><g transform="translate(-326,-1022) scale(1,1)"><g><path fill="none" stroke="none"/><text fill="#000000" stroke="none" font-family="Arial" font-size="13px" font-style="normal" font-weight="bold" text-decoration="none" x="1106.766845703125" y="1901.5">Modifier les</text><text fill="#000000" stroke="none" font-family="Arial" font-size="13px" font-style="normal" font-weight="bold" text-decoration="none" x="1106.024169921875" y="1914.5">données de</text><text fill="#000000" stroke="none" font-family="Arial" font-size="13px" font-style="normal" font-weight="bold" text-decoration="none" x="1121.77587890625" y="1927.5">l'étoile</text></g></g><g transform="translate(-326,-1022) scale(1,1)"><path fill="#C0C0C0" stroke="none" d="M 631 1918.5 C 631 1896.6847504 668.6080768 1879 715 1879 C 761.3919232 1879 799 1896.6847504 799 1918.5 C 799 1940.3152496 761.3919232 1958 715 1958 C 668.6080768 1958 631 1940.3152496 631 1918.5 Z" opacity="0.2"/></g><g transform="translate(-326,-1022) scale(1,1)"><path fill="#ffffff" stroke="none" d="M 624 1911.5 C 624 1889.6847504 661.6080768 1872 708 1872 C 754.3919232 1872 792 1889.6847504 792 1911.5 C 792 1933.3152496 754.3919232 1951 708 1951 C 661.6080768 1951 624 1933.3152496 624 1911.5 Z"/></g><g transform="translate(-326,-1022) scale(1,1)"><path fill="none" stroke="#000000" d="M 624 1911.5 C 624 1889.6847504 661.6080768 1872 708 1872 C 754.3919232 1872 792 1889.6847504 792 1911.5 C 792 1933.3152496 754.3919232 1951 708 1951 C 661.6080768 1951 624 1933.3152496 624 1911.5 Z" stroke-miterlimit="10"/></g><g transform="translate(-326,-1022) scale(1,1)"><g><path fill="none" stroke="none"/><text fill="#000000" stroke="none" font-family="Arial" font-size="13px" font-style="normal" font-weight="bold" text-decoration="none" x="678.369140625" y="1905.5">Ajouter ou</text><text fill="#000000" stroke="none" font-family="Arial" font-size="13px" font-style="normal" font-weight="bold" text-decoration="none" x="659.072265625" y="1918.5">supprimer l'étoile</text><text fill="#000000" stroke="none" font-family="Arial" font-size="13px" font-style="normal" font-weight="bold" text-decoration="none" x="676.569580078125" y="1931.5">des favoris</text></g></g><g transform="translate(-326,-1022) scale(1,1)"><path fill="#C0C0C0" stroke="none" d="M 522 1305 C 522 1290.6405952 548.862912 1279 582 1279 C 615.137088 1279 642 1290.6405952 642 1305 C 642 1319.3594048 615.137088 1331 582 1331 C 548.862912 1331 522 1319.3594048 522 1305 Z" opacity="0.2"/></g><g transform="translate(-326,-1022) scale(1,1)"><path fill="#ffffff" stroke="none" d="M 515 1298 C 515 1283.6405952 541.862912 1272 575 1272 C 608.137088 1272 635 1283.6405952 635 1298 C 635 1312.3594048 608.137088 1324 575 1324 C 541.862912 1324 515 1312.3594048 515 1298 Z"/></g><g transform="translate(-326,-1022) scale(1,1)"><path fill="none" stroke="#000000" d="M 515 1298 C 515 1283.6405952 541.862912 1272 575 1272 C 608.137088 1272 635 1283.6405952 635 1298 C 635 1312.3594048 608.137088 1324 575 1324 C 541.862912 1324 515 1312.3594048 515 1298 Z" stroke-miterlimit="10"/></g><g transform="translate(-326,-1022) scale(1,1)"><g><path fill="none" stroke="none"/><text fill="#000000" stroke="none" font-family="Arial" font-size="13px" font-style="normal" font-weight="bold" text-decoration="none" x="545.016845703125" y="1298.5">Modifier la</text><text fill="#000000" stroke="none" font-family="Arial" font-size="13px" font-style="normal" font-weight="bold" text-decoration="none" x="560.549560546875" y="1311.5">carte</text></g></g><g transform="translate(-326,-1022) scale(1,1)"><path fill="none" stroke="#000000" d="M 379 1552 L 408 1736 L 506 1770" stroke-miterlimit="10"/></g><g transform="translate(-326,-1022) scale(1,1)"><path fill="none" stroke="#000000" d="M 935 1871 L 936 1856 L 576 1856 L 575 1821" stroke-miterlimit="10"/></g><g transform="translate(-326,-1022) scale(1,1)"><path fill="#FFFFFF" stroke="none" d="M 583.9960886657418 1841.076612979238 L 575 1821 L 567.1648861188244 1841.5575044805787"/></g><g transform="translate(-326,-1022) scale(1,1)"><path fill="none" stroke="#000000" d="M 583.9960886657418 1841.076612979238 L 575 1821 L 567.1648861188244 1841.5575044805787 L 583.9960886657418 1841.076612979238" stroke-miterlimit="10"/></g><g transform="translate(-326,-1022) scale(1,1)"><path fill="none" stroke="#000000" d="M 711 1871 L 712 1856 L 576 1856 L 575 1821" stroke-miterlimit="10"/></g><g transform="translate(-326,-1022) scale(1,1)"><path fill="#FFFFFF" stroke="none" d="M 583.9960886657418 1841.076612979238 L 575 1821 L 567.1648861188244 1841.5575044805787"/></g><g transform="translate(-326,-1022) scale(1,1)"><path fill="none" stroke="#000000" d="M 583.9960886657418 1841.076612979238 L 575 1821 L 567.1648861188244 1841.5575044805787 L 583.9960886657418 1841.076612979238" stroke-miterlimit="10"/></g><g transform="translate(-326,-1022) scale(1,1)"><path fill="none" stroke="#000000" d="M 783 1794 L 644 1794" stroke-miterlimit="10" stroke-dasharray="3"/></g><g transform="translate(-326,-1022) scale(1,1)"><path fill="none" stroke="#000000" d="M 654.1626748576241 1789.7904822439841 L 644 1794 L 654.1626748576241 1798.2095177560159" stroke-miterlimit="10"/></g><g transform="translate(-326,-1022) scale(1,1)"><g><path fill="none" stroke="none"/><text fill="#000000" stroke="none" font-family="Arial" font-size="13px" font-style="normal" font-weight="normal" text-decoration="none" x="685.5" y="1812.5">«extend»</text></g></g><g transform="translate(-326,-1022) scale(1,1)"><path fill="#C0C0C0" stroke="none" d="M 743 1210.5 C 743 1190.8938896 775.2354944 1175 815 1175 C 854.7645056 1175 887 1190.8938896 887 1210.5 C 887 1230.1061104 854.7645056 1246 815 1246 C 775.2354944 1246 743 1230.1061104 743 1210.5 Z" opacity="0.2"/></g><g transform="translate(-326,-1022) scale(1,1)"><path fill="#ffffff" stroke="none" d="M 736 1203.5 C 736 1183.8938896 768.2354944 1168 808 1168 C 847.7645056 1168 880 1183.8938896 880 1203.5 C 880 1223.1061104 847.7645056 1239 808 1239 C 768.2354944 1239 736 1223.1061104 736 1203.5 Z"/></g><g transform="translate(-326,-1022) scale(1,1)"><path fill="none" stroke="#000000" d="M 736 1203.5 C 736 1183.8938896 768.2354944 1168 808 1168 C 847.7645056 1168 880 1183.8938896 880 1203.5 C 880 1223.1061104 847.7645056 1239 808 1239 C 768.2354944 1239 736 1223.1061104 736 1203.5 Z" stroke-miterlimit="10"/></g><g transform="translate(-326,-1022) scale(1,1)"><g><path fill="none" stroke="none"/><text fill="#000000" stroke="none" font-family="Arial" font-size="13px" font-style="normal" font-weight="bold" text-decoration="none" x="788.496826171875" y="1197.5">Fichier</text><text fill="#000000" stroke="none" font-family="Arial" font-size="13px" font-style="normal" font-weight="bold" text-decoration="none" x="776.921875" y="1210.5">invalide ou</text><text fill="#000000" stroke="none" font-family="Arial" font-size="13px" font-style="normal" font-weight="bold" text-decoration="none" x="780.54638671875" y="1223.5">corrompu</text></g></g><g transform="translate(-326,-1022) scale(1,1)"><path fill="none" stroke="#000000" d="M 735 1203 L 644 1202" stroke-miterlimit="10" stroke-dasharray="3"/></g><g transform="translate(-326,-1022) scale(1,1)"><path fill="none" stroke="#000000" d="M 654.2083169432913 1197.9024073914902 L 644 1202 L 654.1158056551199 1206.3209346150857" stroke-miterlimit="10"/></g><g transform="translate(-326,-1022) scale(1,1)"><g><path fill="none" stroke="none"/><text fill="#000000" stroke="none" font-family="Arial" font-size="13px" font-style="normal" font-weight="normal" text-decoration="none" x="668.5" y="1227.5">«extend»</text></g></g><g transform="translate(-326,-1022) scale(1,1)"><path fill="#C0C0C0" stroke="none" d="M 719 1674.5 C 719 1654.8938896 763.9953776 1639 819.5 1639 C 875.0046224 1639 920 1654.8938896 920 1674.5 C 920 1694.1061104 875.0046224 1710 819.5 1710 C 763.9953776 1710 719 1694.1061104 719 1674.5 Z" opacity="0.2"/></g><g transform="translate(-326,-1022) scale(1,1)"><path fill="#ffffff" stroke="none" d="M 712 1667.5 C 712 1647.8938896 756.9953776 1632 812.5 1632 C 868.0046224 1632 913 1647.8938896 913 1667.5 C 913 1687.1061104 868.0046224 1703 812.5 1703 C 756.9953776 1703 712 1687.1061104 712 1667.5 Z"/></g><g transform="translate(-326,-1022) scale(1,1)"><path fill="none" stroke="#000000" d="M 712 1667.5 C 712 1647.8938896 756.9953776 1632 812.5 1632 C 868.0046224 1632 913 1647.8938896 913 1667.5 C 913 1687.1061104 868.0046224 1703 812.5 1703 C 756.9953776 1703 712 1687.1061104 712 1667.5 Z" stroke-miterlimit="10"/></g><g transform="translate(-326,-1022) scale(1,1)"><g><path fill="none" stroke="none"/><text fill="#000000" stroke="none" font-family="Arial" font-size="13px" font-style="normal" font-weight="bold" text-decoration="none" x="753.365234375" y="1668">Afficher un message</text><text fill="#000000" stroke="none" font-family="Arial" font-size="13px" font-style="normal" font-weight="bold" text-decoration="none" x="790.305419921875" y="1681">d'erreur</text></g></g><g transform="translate(-326,-1022) scale(1,1)"><path fill="#C0C0C0" stroke="none" d="M 510 1107 C 510 1091.5360256 542.2354944 1079 582 1079 C 621.7645056 1079 654 1091.5360256 654 1107 C 654 1122.4639744 621.7645056 1135 582 1135 C 542.2354944 1135 510 1122.4639744 510 1107 Z" opacity="0.2"/></g><g transform="translate(-326,-1022) scale(1,1)"><path fill="#ffffff" stroke="none" d="M 503 1100 C 503 1084.5360256 535.2354944 1072 575 1072 C 614.7645056 1072 647 1084.5360256 647 1100 C 647 1115.4639744 614.7645056 1128 575 1128 C 535.2354944 1128 503 1115.4639744 503 1100 Z"/></g><g transform="translate(-326,-1022) scale(1,1)"><path fill="none" stroke="#000000" d="M 503 1100 C 503 1084.5360256 535.2354944 1072 575 1072 C 614.7645056 1072 647 1084.5360256 647 1100 C 647 1115.4639744 614.7645056 1128 575 1128 C 535.2354944 1128 503 1115.4639744 503 1100 Z" stroke-miterlimit="10"/></g><g transform="translate(-326,-1022) scale(1,1)"><g><path fill="none" stroke="none"/><text fill="#000000" stroke="none" font-family="Arial" font-size="13px" font-style="normal" font-weight="bold" text-decoration="none" x="546.095947265625" y="1100.5">Créer une</text><text fill="#000000" stroke="none" font-family="Arial" font-size="13px" font-style="normal" font-weight="bold" text-decoration="none" x="534.530517578125" y="1113.5">nouvelle carte</text></g></g><g transform="translate(-326,-1022) scale(1,1)"><path fill="#C0C0C0" stroke="none" d="M 743 1105 C 743 1090.6405952 787.77152 1079 843 1079 C 898.22848 1079 943 1090.6405952 943 1105 C 943 1119.3594048 898.22848 1131 843 1131 C 787.77152 1131 743 1119.3594048 743 1105 Z" opacity="0.2"/></g><g transform="translate(-326,-1022) scale(1,1)"><path fill="#ffffff" stroke="none" d="M 736 1098 C 736 1083.6405952 780.77152 1072 836 1072 C 891.22848 1072 936 1083.6405952 936 1098 C 936 1112.3594048 891.22848 1124 836 1124 C 780.77152 1124 736 1112.3594048 736 1098 Z"/></g><g transform="translate(-326,-1022) scale(1,1)"><path fill="none" stroke="#000000" d="M 736 1098 C 736 1083.6405952 780.77152 1072 836 1072 C 891.22848 1072 936 1083.6405952 936 1098 C 936 1112.3594048 891.22848 1124 836 1124 C 780.77152 1124 736 1112.3594048 736 1098 Z" stroke-miterlimit="10"/></g><g transform="translate(-326,-1022) scale(1,1)"><g><path fill="none" stroke="none"/><text fill="#000000" stroke="none" font-family="Arial" font-size="13px" font-style="normal" font-weight="bold" text-decoration="none" x="777.11279296875" y="1098.5">Supprimer le dernier</text><text fill="#000000" stroke="none" font-family="Arial" font-size="13px" font-style="normal" font-weight="bold" text-decoration="none" x="799.869140625" y="1111.5">projet ouvert</text></g></g><g transform="translate(-326,-1022) scale(1,1)"><path fill="none" stroke="#000000" d="M 410 1522 L 513 1552" stroke-miterlimit="10"/></g><g transform="translate(-326,-1022) scale(1,1)"><path fill="none" stroke="#000000" d="M 533 1229 L 440 1288 L 384 1471" stroke-miterlimit="10"/></g><g transform="translate(-326,-1022) scale(1,1)"><path fill="none" stroke="#000000" d="M 549 1325 L 410 1472" stroke-miterlimit="10"/></g><g transform="translate(-326,-1022) scale(1,1)"><path fill="none" stroke="#000000" d="M 502 1102 L 384 1104 L 373 1471" stroke-miterlimit="10"/></g><g transform="translate(-326,-1022) scale(1,1)"><path fill="none" stroke="#000000" d="M 865 1383 L 864 1368 L 576 1368 L 575 1325" stroke-miterlimit="10"/></g><g transform="translate(-326,-1022) scale(1,1)"><path fill="#FFFFFF" stroke="none" d="M 583.8893145716651 1345.1241170351889 L 575 1325 L 567.055794992751 1345.5155942346987"/></g><g transform="translate(-326,-1022) scale(1,1)"><path fill="none" stroke="#000000" d="M 583.8893145716651 1345.1241170351889 L 575 1325 L 567.055794992751 1345.5155942346987 L 583.8893145716651 1345.1241170351889" stroke-miterlimit="10"/></g><g transform="translate(-326,-1022) scale(1,1)"><path fill="none" stroke="#000000" d="M 914 1669 L 1039 1672" stroke-miterlimit="10" stroke-dasharray="3"/></g><g transform="translate(-326,-1022) scale(1,1)"><path fill="none" stroke="#000000" d="M 1028.7392513864208 1675.964471955877 L 1039 1672 L 1028.9412500714632 1667.5478600791123" stroke-miterlimit="10"/></g><g transform="translate(-326,-1022) scale(1,1)"><g><path fill="none" stroke="none"/><text fill="#000000" stroke="none" font-family="Arial" font-size="13px" font-style="normal" font-weight="normal" text-decoration="none" x="949.5" y="1646.5">«extend»</text></g></g><g transform="translate(-326,-1022) scale(1,1)"><path fill="#C0C0C0" stroke="none" d="M 663 1427.5 C 663 1407.8938896 693.4446336 1392 731 1392 C 768.5553664 1392 799 1407.8938896 799 1427.5 C 799 1447.1061104 768.5553664 1463 731 1463 C 693.4446336 1463 663 1447.1061104 663 1427.5 Z" opacity="0.2"/></g><g transform="translate(-326,-1022) scale(1,1)"><path fill="#ffffff" stroke="none" d="M 656 1420.5 C 656 1400.8938896 686.4446336 1385 724 1385 C 761.5553664 1385 792 1400.8938896 792 1420.5 C 792 1440.1061104 761.5553664 1456 724 1456 C 686.4446336 1456 656 1440.1061104 656 1420.5 Z"/></g><g transform="translate(-326,-1022) scale(1,1)"><path fill="none" stroke="#000000" d="M 656 1420.5 C 656 1400.8938896 686.4446336 1385 724 1385 C 761.5553664 1385 792 1400.8938896 792 1420.5 C 792 1440.1061104 761.5553664 1456 724 1456 C 686.4446336 1456 656 1440.1061104 656 1420.5 Z" stroke-miterlimit="10"/></g><g transform="translate(-326,-1022) scale(1,1)"><g><path fill="none" stroke="none"/><text fill="#000000" stroke="none" font-family="Arial" font-size="13px" font-style="normal" font-weight="bold" text-decoration="none" x="690.754150390625" y="1414.5">Ajouter une</text><text fill="#000000" stroke="none" font-family="Arial" font-size="13px" font-style="normal" font-weight="bold" text-decoration="none" x="694.365966796875" y="1427.5">étoile déjà</text><text fill="#000000" stroke="none" font-family="Arial" font-size="13px" font-style="normal" font-weight="bold" text-decoration="none" x="697.984130859375" y="1440.5">existante</text></g></g><g transform="translate(-326,-1022) scale(1,1)"><path fill="none" stroke="#000000" d="M 727 1384 L 728 1368 L 576 1368 L 575 1325" stroke-miterlimit="10"/></g><g transform="translate(-326,-1022) scale(1,1)"><path fill="#FFFFFF" stroke="none" d="M 583.8893145716651 1345.1241170351889 L 575 1325 L 567.055794992751 1345.5155942346987"/></g><g transform="translate(-326,-1022) scale(1,1)"><path fill="none" stroke="#000000" d="M 583.8893145716651 1345.1241170351889 L 575 1325 L 567.055794992751 1345.5155942346987 L 583.8893145716651 1345.1241170351889" stroke-miterlimit="10"/></g><g transform="translate(-326,-1022) scale(1,1)"><path fill="#C0C0C0" stroke="none" d="M 509 1466.5 C 509 1446.8938896 541.2354944 1431 581 1431 C 620.7645056 1431 653 1446.8938896 653 1466.5 C 653 1486.1061104 620.7645056 1502 581 1502 C 541.2354944 1502 509 1486.1061104 509 1466.5 Z" opacity="0.2"/></g><g transform="translate(-326,-1022) scale(1,1)"><path fill="#ffffff" stroke="none" d="M 502 1459.5 C 502 1439.8938896 534.2354944 1424 574 1424 C 613.7645056 1424 646 1439.8938896 646 1459.5 C 646 1479.1061104 613.7645056 1495 574 1495 C 534.2354944 1495 502 1479.1061104 502 1459.5 Z"/></g><g transform="translate(-326,-1022) scale(1,1)"><path fill="none" stroke="#000000" d="M 502 1459.5 C 502 1439.8938896 534.2354944 1424 574 1424 C 613.7645056 1424 646 1439.8938896 646 1459.5 C 646 1479.1061104 613.7645056 1495 574 1495 C 534.2354944 1495 502 1479.1061104 502 1459.5 Z" stroke-miterlimit="10"/></g><g transform="translate(-326,-1022) scale(1,1)"><g><path fill="none" stroke="none"/><text fill="#000000" stroke="none" font-family="Arial" font-size="13px" font-style="normal" font-weight="bold" text-decoration="none" x="544.734130859375" y="1453.5">Passer en</text><text fill="#000000" stroke="none" font-family="Arial" font-size="13px" font-style="normal" font-weight="bold" text-decoration="none" x="557.740478515625" y="1466.5">mode</text><text fill="#000000" stroke="none" font-family="Arial" font-size="13px" font-style="normal" font-weight="bold" text-decoration="none" x="543.648681640625" y="1479.5">spectateur</text></g></g><g transform="translate(-326,-1022) scale(1,1)"><path fill="none" stroke="#000000" d="M 410 1501 L 501 1478" stroke-miterlimit="10"/></g><g transform="translate(-326,-1022) scale(1,1)"><path fill="#C0C0C0" stroke="none" d="M 963 1427.5 C 963 1407.8938896 1000.6080768 1392 1047 1392 C 1093.3919232 1392 1131 1407.8938896 1131 1427.5 C 1131 1447.1061104 1093.3919232 1463 1047 1463 C 1000.6080768 1463 963 1447.1061104 963 1427.5 Z" opacity="0.2"/></g><g transform="translate(-326,-1022) scale(1,1)"><path fill="#ffffff" stroke="none" d="M 956 1420.5 C 956 1400.8938896 993.6080768 1385 1040 1385 C 1086.3919232 1385 1124 1400.8938896 1124 1420.5 C 1124 1440.1061104 1086.3919232 1456 1040 1456 C 993.6080768 1456 956 1440.1061104 956 1420.5 Z"/></g><g transform="translate(-326,-1022) scale(1,1)"><path fill="none" stroke="#000000" d="M 956 1420.5 C 956 1400.8938896 993.6080768 1385 1040 1385 C 1086.3919232 1385 1124 1400.8938896 1124 1420.5 C 1124 1440.1061104 1086.3919232 1456 1040 1456 C 993.6080768 1456 956 1440.1061104 956 1420.5 Z" stroke-miterlimit="10"/></g><g transform="translate(-326,-1022) scale(1,1)"><g><path fill="none" stroke="none"/><text fill="#000000" stroke="none" font-family="Arial" font-size="13px" font-style="normal" font-weight="bold" text-decoration="none" x="990.142333984375" y="1414.5">Relier des étoiles</text><text fill="#000000" stroke="none" font-family="Arial" font-size="13px" font-style="normal" font-weight="bold" text-decoration="none" x="1017.95458984375" y="1427.5">par une</text><text fill="#000000" stroke="none" font-family="Arial" font-size="13px" font-style="normal" font-weight="bold" text-decoration="none" x="1003.865966796875" y="1440.5">constellation</text></g></g><g transform="translate(-326,-1022) scale(1,1)"><path fill="#C0C0C0" stroke="none" d="M 1145 1427.5 C 1145 1407.8938896 1184.3989376 1392 1233 1392 C 1281.6010624 1392 1321 1407.8938896 1321 1427.5 C 1321 1447.1061104 1281.6010624 1463 1233 1463 C 1184.3989376 1463 1145 1447.1061104 1145 1427.5 Z" opacity="0.2"/></g><g transform="translate(-326,-1022) scale(1,1)"><path fill="#ffffff" stroke="none" d="M 1138 1420.5 C 1138 1400.8938896 1177.3989376 1385 1226 1385 C 1274.6010624 1385 1314 1400.8938896 1314 1420.5 C 1314 1440.1061104 1274.6010624 1456 1226 1456 C 1177.3989376 1456 1138 1440.1061104 1138 1420.5 Z"/></g><g transform="translate(-326,-1022) scale(1,1)"><path fill="none" stroke="#000000" d="M 1138 1420.5 C 1138 1400.8938896 1177.3989376 1385 1226 1385 C 1274.6010624 1385 1314 1400.8938896 1314 1420.5 C 1314 1440.1061104 1274.6010624 1456 1226 1456 C 1177.3989376 1456 1138 1440.1061104 1138 1420.5 Z" stroke-miterlimit="10"/></g><g transform="translate(-326,-1022) scale(1,1)"><g><path fill="none" stroke="none"/><text fill="#000000" stroke="none" font-family="Arial" font-size="13px" font-style="normal" font-weight="bold" text-decoration="none" x="1189.15185546875" y="1414.5">Supprimer la</text><text fill="#000000" stroke="none" font-family="Arial" font-size="13px" font-style="normal" font-weight="bold" text-decoration="none" x="1189.865966796875" y="1427.5">constellation</text><text fill="#000000" stroke="none" font-family="Arial" font-size="13px" font-style="normal" font-weight="bold" text-decoration="none" x="1192.9541015625" y="1440.5">d'une étoile</text></g></g><g transform="translate(-326,-1022) scale(1,1)"><path fill="#C0C0C0" stroke="none" d="M 1335 1427 C 1335 1412.6405952 1365.4446336 1401 1403 1401 C 1440.5553664 1401 1471 1412.6405952 1471 1427 C 1471 1441.3594048 1440.5553664 1453 1403 1453 C 1365.4446336 1453 1335 1441.3594048 1335 1427 Z" opacity="0.2"/></g><g transform="translate(-326,-1022) scale(1,1)"><path fill="#ffffff" stroke="none" d="M 1328 1420 C 1328 1405.6405952 1358.4446336 1394 1396 1394 C 1433.5553664 1394 1464 1405.6405952 1464 1420 C 1464 1434.3594048 1433.5553664 1446 1396 1446 C 1358.4446336 1446 1328 1434.3594048 1328 1420 Z"/></g><g transform="translate(-326,-1022) scale(1,1)"><path fill="none" stroke="#000000" d="M 1328 1420 C 1328 1405.6405952 1358.4446336 1394 1396 1394 C 1433.5553664 1394 1464 1405.6405952 1464 1420 C 1464 1434.3594048 1433.5553664 1446 1396 1446 C 1358.4446336 1446 1328 1434.3594048 1328 1420 Z" stroke-miterlimit="10"/></g><g transform="translate(-326,-1022) scale(1,1)"><g><path fill="none" stroke="none"/><text fill="#000000" stroke="none" font-family="Arial" font-size="13px" font-style="normal" font-weight="bold" text-decoration="none" x="1366.016845703125" y="1420.5">Supprimer</text><text fill="#000000" stroke="none" font-family="Arial" font-size="13px" font-style="normal" font-weight="bold" text-decoration="none" x="1367.81005859375" y="1433.5">une étoile</text></g></g><g transform="translate(-326,-1022) scale(1,1)"><path fill="none" stroke="#000000" d="M 1040 1384 L 1040 1368 L 576 1368 L 575 1325" stroke-miterlimit="10"/></g><g transform="translate(-326,-1022) scale(1,1)"><path fill="#FFFFFF" stroke="none" d="M 583.8893145716651 1345.1241170351889 L 575 1325 L 567.055794992751 1345.5155942346987"/></g><g transform="translate(-326,-1022) scale(1,1)"><path fill="none" stroke="#000000" d="M 583.8893145716651 1345.1241170351889 L 575 1325 L 567.055794992751 1345.5155942346987 L 583.8893145716651 1345.1241170351889" stroke-miterlimit="10"/></g><g transform="translate(-326,-1022) scale(1,1)"><path fill="none" stroke="#000000" d="M 1225 1384 L 1224 1368 L 576 1368 L 575 1325" stroke-miterlimit="10"/></g><g transform="translate(-326,-1022) scale(1,1)"><path fill="#FFFFFF" stroke="none" d="M 583.8893145716651 1345.1241170351889 L 575 1325 L 567.055794992751 1345.5155942346987"/></g><g transform="translate(-326,-1022) scale(1,1)"><path fill="none" stroke="#000000" d="M 583.8893145716651 1345.1241170351889 L 575 1325 L 567.055794992751 1345.5155942346987 L 583.8893145716651 1345.1241170351889" stroke-miterlimit="10"/></g><g transform="translate(-326,-1022) scale(1,1)"><path fill="none" stroke="#000000" d="M 1394 1393 L 1392 1368 L 576 1368 L 575 1325" stroke-miterlimit="10"/></g><g transform="translate(-326,-1022) scale(1,1)"><path fill="#FFFFFF" stroke="none" d="M 583.8893145716651 1345.1241170351889 L 575 1325 L 567.055794992751 1345.5155942346987"/></g><g transform="translate(-326,-1022) scale(1,1)"><path fill="none" stroke="#000000" d="M 583.8893145716651 1345.1241170351889 L 575 1325 L 567.055794992751 1345.5155942346987 L 583.8893145716651 1345.1241170351889" stroke-miterlimit="10"/></g><g transform="translate(-326,-1022) scale(1,1)"><path fill="#C0C0C0" stroke="none" d="M 1485 1427 C 1485 1417.6111584 1510.9674816 1410 1543 1410 C 1575.0325184 1410 1601 1417.6111584 1601 1427 C 1601 1436.3888416 1575.0325184 1444 1543 1444 C 1510.9674816 1444 1485 1436.3888416 1485 1427 Z" opacity="0.2"/></g><g transform="translate(-326,-1022) scale(1,1)"><path fill="#ffffff" stroke="none" d="M 1478 1420 C 1478 1410.6111584 1503.9674816 1403 1536 1403 C 1568.0325184 1403 1594 1410.6111584 1594 1420 C 1594 1429.3888416 1568.0325184 1437 1536 1437 C 1503.9674816 1437 1478 1429.3888416 1478 1420 Z"/></g><g transform="translate(-326,-1022) scale(1,1)"><path fill="none" stroke="#000000" d="M 1478 1420 C 1478 1410.6111584 1503.9674816 1403 1536 1403 C 1568.0325184 1403 1594 1410.6111584 1594 1420 C 1594 1429.3888416 1568.0325184 1437 1536 1437 C 1503.9674816 1437 1478 1429.3888416 1478 1420 Z" stroke-miterlimit="10"/></g><g transform="translate(-326,-1022) scale(1,1)"><g><path fill="none" stroke="none"/><text fill="#000000" stroke="none" font-family="Arial" font-size="13px" font-style="normal" font-weight="bold" text-decoration="none" x="1502.154296875" y="1427">Tout effacer</text></g></g><g transform="translate(-326,-1022) scale(1,1)"><path fill="#C0C0C0" stroke="none" d="M 1047 1681 C 1047 1666.6405952 1089.9806592 1655 1143 1655 C 1196.0193408 1655 1239 1666.6405952 1239 1681 C 1239 1695.3594048 1196.0193408 1707 1143 1707 C 1089.9806592 1707 1047 1695.3594048 1047 1681 Z" opacity="0.2"/></g><g transform="translate(-326,-1022) scale(1,1)"><path fill="#ffffff" stroke="none" d="M 1040 1674 C 1040 1659.6405952 1082.9806592 1648 1136 1648 C 1189.0193408 1648 1232 1659.6405952 1232 1674 C 1232 1688.3594048 1189.0193408 1700 1136 1700 C 1082.9806592 1700 1040 1688.3594048 1040 1674 Z"/></g><g transform="translate(-326,-1022) scale(1,1)"><path fill="none" stroke="#000000" d="M 1040 1674 C 1040 1659.6405952 1082.9806592 1648 1136 1648 C 1189.0193408 1648 1232 1659.6405952 1232 1674 C 1232 1688.3594048 1189.0193408 1700 1136 1700 C 1082.9806592 1700 1040 1688.3594048 1040 1674 Z" stroke-miterlimit="10"/></g><g transform="translate(-326,-1022) scale(1,1)"><g><path fill="none" stroke="none"/><text fill="#000000" stroke="none" font-family="Arial" font-size="13px" font-style="normal" font-weight="bold" text-decoration="none" x="1078.92822265625" y="1674.5">Remplir les champs</text><text fill="#000000" stroke="none" font-family="Arial" font-size="13px" font-style="normal" font-weight="bold" text-decoration="none" x="1101.31640625" y="1687.5">nécessaires</text></g></g><g transform="translate(-326,-1022) scale(1,1)"><path fill="none" stroke="#000000" d="M 918 1474 L 1107 1647" stroke-miterlimit="10" stroke-dasharray="3"/></g><g transform="translate(-326,-1022) scale(1,1)"><path fill="none" stroke="#000000" d="M 1096.6613626646104 1643.2433288609077 L 1107 1647 L 1102.3458470690575 1637.0331117947776" stroke-miterlimit="10"/></g><g transform="translate(-326,-1022) scale(1,1)"><g><path fill="none" stroke="none"/><text fill="#000000" stroke="none" font-family="Arial" font-size="13px" font-style="normal" font-weight="normal" text-decoration="none" x="1004.5" y="1543.5">«include»</text></g></g><g transform="translate(-326,-1022) scale(1,1)"><path fill="none" stroke="#000000" d="M 543 1655 L 410 1543" stroke-miterlimit="10"/></g><g transform="translate(-326,-1022) scale(1,1)"><path fill="#C0C0C0" stroke="none" d="M 1327 1625 C 1327 1610.6405952 1359.2354944 1599 1399 1599 C 1438.7645056 1599 1471 1610.6405952 1471 1625 C 1471 1639.3594048 1438.7645056 1651 1399 1651 C 1359.2354944 1651 1327 1639.3594048 1327 1625 Z" opacity="0.2"/></g><g transform="translate(-326,-1022) scale(1,1)"><path fill="#ffffff" stroke="none" d="M 1320 1618 C 1320 1603.6405952 1352.2354944 1592 1392 1592 C 1431.7645056 1592 1464 1603.6405952 1464 1618 C 1464 1632.3594048 1431.7645056 1644 1392 1644 C 1352.2354944 1644 1320 1632.3594048 1320 1618 Z"/></g><g transform="translate(-326,-1022) scale(1,1)"><path fill="none" stroke="#000000" d="M 1320 1618 C 1320 1603.6405952 1352.2354944 1592 1392 1592 C 1431.7645056 1592 1464 1603.6405952 1464 1618 C 1464 1632.3594048 1431.7645056 1644 1392 1644 C 1352.2354944 1644 1320 1632.3594048 1320 1618 Z" stroke-miterlimit="10"/></g><g transform="translate(-326,-1022) scale(1,1)"><g><path fill="none" stroke="none"/><text fill="#000000" stroke="none" font-family="Arial" font-size="13px" font-style="normal" font-weight="bold" text-decoration="none" x="1354.786865234375" y="1618.5">Demander la</text><text fill="#000000" stroke="none" font-family="Arial" font-size="13px" font-style="normal" font-weight="bold" text-decoration="none" x="1356.595947265625" y="1631.5">confirmation</text></g></g><g transform="translate(-326,-1022) scale(1,1)"><path fill="none" stroke="#000000" d="M 1523 1438 L 1412 1591" stroke-miterlimit="10" stroke-dasharray="3"/></g><g transform="translate(-326,-1022) scale(1,1)"><path fill="none" stroke="#000000" d="M 1414.5605276794745 1580.3021638635355 L 1412 1591 L 1421.3750789616888 1585.2460540094557" stroke-miterlimit="10"/></g><g transform="translate(-326,-1022) scale(1,1)"><g><path fill="none" stroke="none"/><text fill="#000000" stroke="none" font-family="Arial" font-size="13px" font-style="normal" font-weight="normal" text-decoration="none" x="1463.5" y="1537.5">«include»</text></g></g><g transform="translate(-326,-1022) scale(1,1)"><path fill="none" stroke="#000000" d="M 735 1099 L 648 1099" stroke-miterlimit="10" stroke-dasharray="3"/></g><g transform="translate(-326,-1022) scale(1,1)"><path fill="none" stroke="#000000" d="M 658.1626748576241 1094.7904822439841 L 648 1099 L 658.1626748576241 1103.2095177560159" stroke-miterlimit="10"/></g><g transform="translate(-326,-1022) scale(1,1)"><g><path fill="none" stroke="none"/><text fill="#000000" stroke="none" font-family="Arial" font-size="13px" font-style="normal" font-weight="normal" text-decoration="none" x="663.5" y="1116.5">«extend»</text></g></g><g transform="translate(-326,-1022) scale(1,1)"><path fill="none" stroke="#000000" d="M 768 1125 L 643 1175" stroke-miterlimit="10" stroke-dasharray="3"/></g><g transform="translate(-326,-1022) scale(1,1)"><path fill="none" stroke="#000000" d="M 650.8724310758183 1167.3172381947315 L 643 1175 L 653.9991823688811 1175.1341164273886" stroke-miterlimit="10"/></g><g transform="translate(-326,-1022) scale(1,1)"><g><path fill="none" stroke="none"/><text fill="#000000" stroke="none" font-family="Arial" font-size="13px" font-style="normal" font-weight="normal" text-decoration="none" x="710.5" y="1156.5">«extend»</text></g></g><g transform="translate(-326,-1022) scale(1,1)"><path fill="none" stroke="#000000" d="M 1143 1871 L 1144 1856 L 576 1856 L 575 1821" stroke-miterlimit="10"/></g><g transform="translate(-326,-1022) scale(1,1)"><path fill="#FFFFFF" stroke="none" d="M 583.9960886657418 1841.076612979238 L 575 1821 L 567.1648861188244 1841.5575044805787"/></g><g transform="translate(-326,-1022) scale(1,1)"><path fill="none" stroke="#000000" d="M 583.9960886657418 1841.076612979238 L 575 1821 L 567.1648861188244 1841.5575044805787 L 583.9960886657418 1841.076612979238" stroke-miterlimit="10"/></g><g transform="translate(-326,-1022) scale(1,1)"><path fill="none" stroke="#000000" d="M 761 1631 L 728 1608 L 725 1457" stroke-miterlimit="10" stroke-dasharray="3"/></g><g transform="translate(-326,-1022) scale(1,1)"><path fill="none" stroke="#000000" d="M 729.4105548233359 1467.0770534458416 L 725 1457 L 720.993180398442 1467.2442860503097" stroke-miterlimit="10"/></g><g transform="translate(-326,-1022) scale(1,1)"><g><path fill="none" stroke="none"/><text fill="#000000" stroke="none" font-family="Arial" font-size="13px" font-style="normal" font-weight="normal" text-decoration="none" x="731.5" y="1574.5">«extend»</text></g></g><g transform="translate(-326,-1022) scale(1,1)"><path fill="none" stroke="#000000" d="M 1536 1402 L 1536 1368 L 576 1368 L 575 1325" stroke-miterlimit="10"/></g><g transform="translate(-326,-1022) scale(1,1)"><path fill="#FFFFFF" stroke="none" d="M 583.8893145716651 1345.1241170351889 L 575 1325 L 567.055794992751 1345.5155942346987"/></g><g transform="translate(-326,-1022) scale(1,1)"><path fill="none" stroke="#000000" d="M 583.8893145716651 1345.1241170351889 L 575 1325 L 567.055794992751 1345.5155942346987 L 583.8893145716651 1345.1241170351889" stroke-miterlimit="10"/></g><g transform="translate(-326,-1022) scale(1,1)"><path fill="none" stroke="#000000" d="M 1209 1872 L 1272 1840 L 1158 1701" stroke-miterlimit="10" stroke-dasharray="3"/></g><g transform="translate(-326,-1022) scale(1,1)"><path fill="none" stroke="#000000" d="M 1167.6994755769488 1706.1884654313365 L 1158 1701 L 1161.1897658639637 1711.5273640448638" stroke-miterlimit="10"/></g><g transform="translate(-326,-1022) scale(1,1)"><g><path fill="none" stroke="none"/><text fill="#000000" stroke="none" font-family="Arial" font-size="13px" font-style="normal" font-weight="normal" text-decoration="none" x="1182.5" y="1844.5">«include»</text></g></g></g></svg>